<svg width="341" height="114" viewBox="0 0 341 114" fill="none" xmlns="http://www.w3.org/2000/svg">
<g clip-path="url(#clip0_11_1550)">
<mask id="mask0_11_1550" style="mask-type:luminance" maskUnits="userSpaceOnUse" x="0" y="0" width="341" height="114">
<path d="M0 0.000413659H340.157V113.386H0V0.000413659Z" fill="white"/>
</mask>
<g mask="url(#mask0_11_1550)">
<path d="M305.932 64.3901C301.124 64.3901 297.883 60.9407 297.883 55.9741C297.883 51.0607 301.124 47.6114 305.932 47.6114C310.69 47.6114 313.931 51.0607 313.931 55.9741C313.931 60.9407 310.69 64.3901 305.932 64.3901ZM305.932 42.0181C297.935 42.0181 291.871 47.9767 291.871 55.9741C291.871 64.0247 297.935 69.9834 305.932 69.9834C313.878 69.9834 319.994 64.0247 319.994 55.9741C319.994 47.9767 313.878 42.0181 305.932 42.0181Z" fill="black"/>
<path d="M118.903 64.3901C114.094 64.3901 110.852 60.9407 110.852 55.9741C110.852 51.0607 114.094 47.6114 118.903 47.6114C123.659 47.6114 126.9 51.0607 126.9 55.9741C126.9 60.9407 123.659 64.3901 118.903 64.3901ZM118.903 42.0181C110.904 42.0181 104.842 47.9767 104.842 55.9741C104.842 64.0247 110.904 69.9834 118.903 69.9834C126.848 69.9834 132.964 64.0247 132.964 55.9741C132.964 47.9767 126.848 42.0181 118.903 42.0181Z" fill="black"/>
<path d="M150.789 64.3901C145.981 64.3901 142.686 61.0447 142.686 56.0794C142.686 51.1127 145.981 47.6634 150.789 47.6634C155.704 47.6634 158.788 51.1127 158.788 56.0794C158.788 61.0447 155.598 64.3901 150.789 64.3901ZM148.96 32.2954C146.45 32.2954 143.889 32.6621 141.85 33.0274C141.12 33.1314 140.753 33.3927 140.753 34.3341V37.9407C140.753 38.4114 140.962 38.9341 141.642 38.7781C143.628 38.3074 145.614 37.8354 148.908 37.8354C154.344 37.8354 157.428 40.8154 158.578 45.8341C157.062 43.6381 154.709 42.2794 150.789 42.2794C143.366 42.2794 136.676 46.9834 136.676 56.0794C136.676 64.1287 142.792 69.9834 150.789 69.9834C160.669 69.9834 165.008 62.9261 165.008 52.1594C165.008 41.1301 160.825 32.2954 148.96 32.2954Z" fill="black"/>
<path d="M289.256 43.0106H267.772C267.198 43.0106 266.988 43.2199 266.988 43.7946V47.4546C266.988 48.0293 267.198 48.2373 267.772 48.2373H275.456V68.2053C275.456 68.7813 275.666 68.9893 276.24 68.9893H280.683C281.259 68.9893 281.468 68.7293 281.468 68.2053V48.2373H289.256C289.831 48.2373 290.04 48.0293 290.04 47.4546V43.7946C290.04 43.2199 289.831 43.0106 289.256 43.0106Z" fill="black"/>
<path d="M217.693 53.2565C218.6 48.8445 221.797 46.9832 225.591 46.9832C229.615 46.9832 232.439 49.3365 232.699 53.2565H217.693ZM225.591 42.0178C217.175 42.0178 211.529 48.0298 211.529 55.9752C211.529 65.4352 218.429 70.0352 226.897 70.0352C229.877 70.0352 232.387 69.7738 233.797 69.3565C234.476 69.1472 234.739 68.9898 234.739 68.2058V64.5472C234.739 63.9725 234.476 63.5538 233.693 63.7112C231.655 64.1285 229.355 64.4952 227.211 64.4952C221.885 64.4952 218.373 62.5592 217.599 58.0125H233.379C237.3 58.0125 238.607 56.9152 238.607 53.0472C238.607 46.6698 233.379 42.0178 225.591 42.0178Z" fill="black"/>
<path d="M263.539 43.0106H242.055C241.481 43.0106 241.271 43.2199 241.271 43.7946V47.4546C241.271 48.0293 241.481 48.2373 242.055 48.2373H249.739V68.2053C249.739 68.7813 249.949 68.9893 250.523 68.9893H254.967C255.542 68.9893 255.751 68.7293 255.751 68.2053V48.2373H263.539C264.115 48.2373 264.323 48.0293 264.323 47.4546V43.7946C264.323 43.2199 264.115 43.0106 263.539 43.0106Z" fill="black"/>
<path d="M208.079 64.0769C202.172 64.0769 201.911 59.5809 198.513 55.7663C198.435 55.6769 198.353 55.5889 198.269 55.5036C201.009 48.9956 203.393 47.5063 206.459 47.5063H207.347C207.817 47.5063 207.973 47.3503 207.973 46.9836V43.4289C207.973 43.0636 207.973 42.6969 207.399 42.5929C207.137 42.5409 206.353 42.5409 205.831 42.5409C200.477 42.5409 197.971 44.0543 193.427 53.4889C192.921 53.4396 192.371 53.4129 191.771 53.4129H191.665V43.7956C191.665 43.2196 191.456 43.0116 190.881 43.0116H186.699C186.124 43.0116 185.915 43.2196 185.915 43.7956V53.4129H185.811C185.209 53.4129 184.66 53.4396 184.153 53.4889C179.609 44.0543 177.104 42.5409 171.749 42.5409C171.227 42.5409 170.704 42.5409 170.181 42.5929C169.711 42.6449 169.607 42.9063 169.607 43.4289V46.8796C169.607 47.2983 169.764 47.5063 170.233 47.5063H171.123C174.188 47.5063 176.572 48.9956 179.311 55.5036C179.227 55.5889 179.145 55.6769 179.068 55.7663C175.669 59.5809 175.304 64.0769 169.711 64.0769C169.241 64.0769 168.979 64.2863 168.979 64.8089V68.6769C168.979 69.2516 169.241 69.4609 169.764 69.4609C177.656 69.4609 178.911 64.5476 183.04 59.4249C183.72 58.5876 184.504 58.1183 185.759 58.1183H185.915V68.2063C185.915 68.7809 186.124 68.9903 186.699 68.9903H190.881C191.456 68.9903 191.665 68.7809 191.665 68.2063V58.1183H191.823C193.077 58.1183 193.86 58.5876 194.54 59.4249C198.669 64.5476 200.133 69.4609 208.027 69.4609C208.601 69.4609 208.601 69.0956 208.601 68.7809V64.6516C208.601 64.1809 208.496 64.0769 208.079 64.0769Z" fill="black"/>
</g>
<mask id="mask1_11_1550" style="mask-type:luminance" maskUnits="userSpaceOnUse" x="20" y="58" width="13" height="8">
<path d="M20.2383 58.9537C20.2769 59.5497 20.3329 60.143 20.4023 60.7323C21.0823 63.5603 23.6609 65.6337 26.6889 65.5617C29.9463 65.483 32.5703 62.9457 32.8263 59.767C32.7623 59.3323 32.7129 58.891 32.6756 58.4483C32.6676 58.339 32.6556 58.2297 32.6436 58.1217L20.2383 58.9537Z" fill="white"/>
</mask>
<g mask="url(#mask1_11_1550)">
<mask id="mask2_11_1550" style="mask-type:luminance" maskUnits="userSpaceOnUse" x="20" y="57" width="14" height="28">
<mask id="mask3_11_1550" style="mask-type:luminance" maskUnits="userSpaceOnUse" x="20" y="57" width="14" height="28">
<path d="M20.1719 57.4359H33.5201V84.7744H20.1719V57.4359Z" fill="white"/>
</mask>
<g mask="url(#mask3_11_1550)">
<mask id="mask4_11_1550" style="mask-type:luminance" maskUnits="userSpaceOnUse" x="20" y="57" width="14" height="28">
<path d="M20.1719 57.4367H33.5199V84.7754H20.1719V57.4367Z" fill="white"/>
</mask>
<g mask="url(#mask4_11_1550)">
<path d="M21.1647 84.7744C23.2103 84.6051 24.2324 84.5211 24.2324 84.5211C24.2324 84.5211 24.0729 67.6253 23.3789 59.2275C23.3789 59.2275 22.3294 59.3148 20.2305 59.488C20.9238 67.8851 21.1647 84.7744 21.1647 84.7744Z" fill="black"/>
<path d="M24.2324 84.5211C25.2552 84.4365 26.2773 84.3519 27.3001 84.2679C27.3001 84.2679 27.222 67.3649 26.528 58.9678C25.4785 59.0544 24.429 59.1409 23.3789 59.2275C24.0729 67.6253 24.2324 84.5211 24.2324 84.5211Z" fill="black"/>
<path d="M27.3014 84.2676C28.3236 84.1829 29.3464 84.0983 30.3691 84.0137C30.3691 84.0137 30.3718 67.1048 29.6784 58.707C28.6289 58.7943 27.5788 58.8809 26.5293 58.9674C27.2233 67.3646 27.3014 84.2676 27.3014 84.2676Z" fill="black"/>
<path d="M30.3685 84.0137C30.3685 84.0137 31.3906 83.9297 33.4356 83.7604C33.4356 83.7604 33.5202 66.8444 32.8268 58.4473C30.7272 58.6204 29.6777 58.707 29.6777 58.707C30.3711 67.1048 30.3685 84.0137 30.3685 84.0137Z" fill="black"/>
<path d="M20.2311 59.488C22.3301 59.3148 23.3796 59.2275 23.3796 59.2275C23.3633 58.7432 23.3464 58.2588 23.3294 57.7744C23.3294 57.7744 22.2767 57.8122 20.1719 57.8877C20.1914 58.4209 20.211 58.9548 20.2311 59.488Z" fill="black"/>
<path d="M23.3802 59.2269C24.4303 59.1403 25.4798 59.0537 26.5293 58.9671C26.5156 58.5316 26.5013 58.0967 26.4876 57.6611C25.4349 57.6989 24.3828 57.7367 23.3301 57.7738C23.347 58.2581 23.3639 58.7425 23.3802 59.2269Z" fill="black"/>
<path d="M26.528 58.9671C27.5775 58.8805 28.6276 58.7939 29.6771 58.7067C29.666 58.3206 29.655 57.9346 29.6439 57.5479C28.5918 57.5856 27.5391 57.6234 26.4863 57.6611C26.5 58.0967 26.5143 58.5316 26.528 58.9671Z" fill="black"/>
<path d="M29.6777 58.707C29.6777 58.707 30.7272 58.6204 32.8268 58.4473C32.8184 58.11 32.8105 57.7728 32.8021 57.4355C30.6973 57.5104 29.6445 57.5482 29.6445 57.5482C29.6556 57.9349 29.6667 58.321 29.6777 58.707Z" fill="black"/>
</g>
</g>
</mask>
<g mask="url(#mask2_11_1550)">
<path d="M21.1647 84.7744C23.2103 84.6051 24.2324 84.5211 24.2324 84.5211C24.2324 84.5211 24.0729 67.6253 23.3789 59.2275C23.3789 59.2275 22.3294 59.3148 20.2305 59.488C20.9238 67.8851 21.1647 84.7744 21.1647 84.7744Z" fill="#FDDC04"/>
<path d="M24.2324 84.5211C25.2552 84.4365 26.2773 84.3519 27.3001 84.2679C27.3001 84.2679 27.222 67.3649 26.528 58.9678C25.4785 59.0544 24.429 59.1409 23.3789 59.2275C24.0729 67.6253 24.2324 84.5211 24.2324 84.5211Z" fill="#FDDC04"/>
<path d="M27.3014 84.2676C28.3236 84.1829 29.3464 84.0983 30.3691 84.0137C30.3691 84.0137 30.3718 67.1048 29.6784 58.707C28.6289 58.7943 27.5788 58.8809 26.5293 58.9674C27.2233 67.3646 27.3014 84.2676 27.3014 84.2676Z" fill="#FDDC04"/>
<path d="M30.3685 84.0137C30.3685 84.0137 31.3906 83.9297 33.4356 83.7604C33.4356 83.7604 33.5202 66.8444 32.8268 58.4473C30.7272 58.6204 29.6777 58.707 29.6777 58.707C30.3711 67.1048 30.3685 84.0137 30.3685 84.0137Z" fill="#FDDC04"/>
<path d="M20.2311 59.488C22.3301 59.3148 23.3796 59.2275 23.3796 59.2275C23.3633 58.7432 23.3464 58.2588 23.3294 57.7744C23.3294 57.7744 22.2767 57.8122 20.1719 57.8877C20.1914 58.4209 20.211 58.9548 20.2311 59.488Z" fill="#FDDC04"/>
<path d="M23.3802 59.2269C24.4303 59.1403 25.4798 59.0537 26.5293 58.9671C26.5156 58.5316 26.5013 58.0967 26.4876 57.6611C25.4349 57.6989 24.3828 57.7367 23.3301 57.7738C23.347 58.2581 23.3639 58.7425 23.3802 59.2269Z" fill="#FDDC04"/>
<path d="M26.528 58.9671C27.5775 58.8805 28.6276 58.7939 29.6771 58.7067C29.666 58.3206 29.655 57.9346 29.6439 57.5479C28.5918 57.5856 27.5391 57.6234 26.4863 57.6611C26.5 58.0967 26.5143 58.5316 26.528 58.9671Z" fill="#FDDC04"/>
<path d="M29.6777 58.707C29.6777 58.707 30.7272 58.6204 32.8268 58.4473C32.8184 58.11 32.8105 57.7728 32.8021 57.4355C30.6973 57.5104 29.6445 57.5482 29.6445 57.5482C29.6556 57.9349 29.6667 58.321 29.6777 58.707Z" fill="#FDDC04"/>
</g>
</g>
<mask id="mask5_11_1550" style="mask-type:luminance" maskUnits="userSpaceOnUse" x="20" y="22" width="69" height="69">
<path d="M20.166 56.6924C20.166 75.4538 35.3753 90.6631 54.1367 90.6631C72.8967 90.6631 88.1073 75.4538 88.1073 56.6924C88.1073 37.9311 72.8967 22.7218 54.1367 22.7218C35.3753 22.7218 20.166 37.9311 20.166 56.6924ZM45.45 29.5578C47.954 28.7684 50.6113 28.2538 53.3633 28.1884C61.0247 28.0164 68.1167 30.7564 73.6473 36.0311C79.1767 41.3071 82.31 48.3751 82.49 56.0164C82.5727 59.5058 79.9127 62.3964 76.422 62.4791C75.842 62.4858 75.2873 62.3938 74.7513 62.2538C73.9593 65.1831 72.5673 67.9484 70.6073 70.2964C67.5313 73.9498 63.2847 76.6418 58.5913 77.5738C58.1567 77.6924 57.7113 77.7564 57.2647 77.8098C56.87 77.8738 56.4727 77.9244 56.0713 77.9644C56.0167 77.9738 55.9607 77.9831 55.906 77.9924C55.8993 77.9938 55.8927 77.9938 55.886 77.9951C55.7993 77.9978 55.7127 78.0004 55.626 78.0031C49.9847 78.4418 44.49 76.6658 40.162 72.9991C35.8047 69.3058 33.1473 64.1404 32.6767 58.4484C32.39 54.9684 30.274 51.6058 25.8847 52.3951C28.0113 41.4871 35.0487 32.8324 45.45 29.5578Z" fill="white"/>
</mask>
<g mask="url(#mask5_11_1550)">
<mask id="mask6_11_1550" style="mask-type:luminance" maskUnits="userSpaceOnUse" x="20" y="22" width="69" height="69">
<mask id="mask7_11_1550" style="mask-type:luminance" maskUnits="userSpaceOnUse" x="20" y="22" width="69" height="69">
<path d="M20.1211 22.6732H88.1498V90.7012H20.1211V22.6732Z" fill="white"/>
</mask>
<g mask="url(#mask7_11_1550)">
<mask id="mask8_11_1550" style="mask-type:luminance" maskUnits="userSpaceOnUse" x="20" y="22" width="69" height="69">
<path d="M20.1211 22.6732H88.1491V90.7012H20.1211V22.6732Z" fill="white"/>
</mask>
<g mask="url(#mask8_11_1550)">
<path d="M20.2331 59.487C22.332 59.3138 23.3815 59.2266 23.3815 59.2266C23.3483 58.2578 23.3314 57.7734 23.3314 57.7734C23.3314 57.7734 22.2786 57.8112 20.1738 57.8867C20.1738 57.8867 20.1934 58.4199 20.2331 59.487Z" fill="black"/>
<path d="M23.3802 59.2269C24.4303 59.1403 25.4798 59.0537 26.5293 58.9671C26.5013 58.0967 26.4876 57.6611 26.4876 57.6611C25.4349 57.6989 24.3828 57.7367 23.3301 57.7738C23.3301 57.7738 23.347 58.2581 23.3802 59.2269Z" fill="black"/>
<path d="M26.5299 58.9671C27.5794 58.8805 28.6296 58.7939 29.679 58.7067C29.6569 57.9346 29.6458 57.5479 29.6458 57.5479C28.5938 57.5856 27.541 57.6234 26.4883 57.6611C26.4883 57.6611 26.5019 58.0967 26.5299 58.9671Z" fill="black"/>
<path d="M29.6797 58.707C29.6797 58.707 30.7292 58.6204 32.8288 58.4473C32.8125 57.7728 32.804 57.4355 32.804 57.4355C30.6992 57.5104 29.6465 57.5482 29.6465 57.5482C29.6465 57.5482 29.6576 57.9349 29.6797 58.707Z" fill="black"/>
<path d="M20.1732 57.8867C22.278 57.8112 23.3307 57.7734 23.3307 57.7734C23.3138 57.207 23.2969 56.64 23.2806 56.0729C23.2806 56.0729 22.2272 56.0534 20.1211 56.0137C20.1387 56.638 20.1556 57.2624 20.1732 57.8867Z" fill="#030303"/>
<path d="M23.3314 57.7738C24.3841 57.7366 25.4362 57.6989 26.4889 57.6611C26.4727 57.1514 26.4564 56.6422 26.4401 56.1325C25.3874 56.1129 24.334 56.0934 23.2812 56.0732C23.2975 56.6403 23.3144 57.2073 23.3314 57.7738Z" fill="#030303"/>
<path d="M26.4883 57.6615C27.541 57.6237 28.5937 57.5859 29.6458 57.5482C29.6302 57.0964 29.6146 56.6445 29.5983 56.1927C28.5456 56.1725 27.4928 56.153 26.4395 56.1328C26.4557 56.6426 26.472 57.1517 26.4883 57.6615Z" fill="#030303"/>
<path d="M29.6452 57.5478C29.6452 57.5478 30.6979 57.5101 32.8027 57.4352C32.7878 57.0407 32.7721 56.6462 32.7572 56.2516C30.651 56.2119 29.5977 56.1924 29.5977 56.1924C29.6139 56.6442 29.6296 57.096 29.6452 57.5478Z" fill="#030303"/>
<path d="M20.1211 56.014C22.2272 56.0537 23.2806 56.0732 23.2806 56.0732C23.3522 52.2926 24.1517 48.54 25.5814 45.0485C25.4824 44.9554 24.3783 44.5023 22.6563 43.8545C21.0801 47.7054 20.1986 51.8441 20.1211 56.014Z" fill="#060606"/>
<path d="M22.6562 43.8545C24.3783 44.5023 25.4824 44.9554 25.5814 45.0485C27.0104 41.557 29.0703 38.3252 31.6621 35.585C31.4642 35.3994 30.696 34.6787 29.3581 33.4229C26.5026 36.4404 24.2324 40.0036 22.6562 43.8545Z" fill="#1C1C1C"/>
<path d="M29.3574 33.4228C30.6953 34.6787 31.4635 35.3994 31.6615 35.585C34.2305 32.8226 37.3294 30.5661 40.7266 28.9222C40.6276 28.8291 40.1087 27.7549 39.3529 26.0771C35.6055 27.8909 32.1862 30.3792 29.3574 33.4228Z" fill="#2F2F2F"/>
<path d="M39.3535 26.0768C40.1094 27.7545 40.6283 28.8288 40.7272 28.9219C44.1244 27.278 47.819 26.2461 51.5807 25.9342C51.5807 25.9342 51.4935 24.8848 51.319 22.7852C47.1764 23.1263 43.1009 24.2637 39.3535 26.0768Z" fill="#414141"/>
<path d="M23.2812 56.0736C24.334 56.0937 25.3874 56.1133 26.4401 56.1328C26.5065 52.7409 27.224 49.3756 28.5065 46.2428C27.5964 45.8724 26.4922 45.4193 25.582 45.0488C24.1523 48.5404 23.3529 52.293 23.2812 56.0736Z" fill="#060606"/>
<path d="M25.582 45.0485C26.4922 45.4189 27.5964 45.8721 28.5065 46.2425C29.7897 43.1097 31.638 40.21 33.9668 37.7477C33.1986 37.0264 32.4303 36.3057 31.6628 35.585C29.071 38.3252 27.0111 41.557 25.582 45.0485Z" fill="#1C1C1C"/>
<path d="M31.6621 35.5846C32.4297 36.3053 33.1979 37.026 33.9661 37.7474C36.276 35.2656 39.0547 33.2415 42.1009 31.7663C41.6732 30.8815 41.155 29.8073 40.7272 28.9219C37.3301 30.5658 34.2311 32.8223 31.6621 35.5846Z" fill="#2F2F2F"/>
<path d="M40.7266 28.9222C41.1543 29.8076 41.6725 30.8818 42.1003 31.7666C45.1465 30.292 48.4609 29.3662 51.8412 29.0837C51.7546 28.0335 51.6673 26.984 51.5801 25.9346C47.8184 26.2464 44.1237 27.2783 40.7266 28.9222Z" fill="#414141"/>
<path d="M26.4395 56.1322C27.4928 56.1523 28.5456 56.1719 29.5983 56.192C29.6595 53.1881 30.2949 50.2096 31.431 47.4362C30.5208 47.0658 29.4167 46.6126 28.5059 46.2422C27.2233 49.375 26.5059 52.7402 26.4395 56.1322Z" fill="#060606"/>
<path d="M28.5059 46.2428C29.4167 46.6133 30.5208 47.0664 31.431 47.4368C32.5677 44.6634 34.2051 42.0944 36.2702 39.9102C35.502 39.1894 34.7337 38.4687 33.9662 37.748C31.6374 40.2103 29.7891 43.11 28.5059 46.2428Z" fill="#1C1C1C"/>
<path d="M33.9668 37.7477C34.7344 38.4684 35.5026 39.1891 36.2708 39.9098C38.321 37.7093 40.7793 35.917 43.4753 34.6116C43.0482 33.7262 42.5293 32.652 42.1016 31.7666C39.0553 33.2419 36.2767 35.2659 33.9668 37.7477Z" fill="#2F2F2F"/>
<path d="M42.1016 31.7669C42.5293 32.6523 43.0482 33.7266 43.4753 34.612C46.1712 33.306 49.1048 32.487 52.1042 32.2324C52.0169 31.1829 51.9297 30.1335 51.8425 29.084C48.4622 29.3665 45.1478 30.2923 42.1016 31.7669Z" fill="#414141"/>
<path d="M29.5977 56.1924C29.5977 56.1924 30.651 56.2119 32.7572 56.2516C32.8118 53.6364 33.3652 51.0452 34.3555 48.6305C32.6335 47.9827 31.5293 47.5296 31.4303 47.4365C30.2943 50.21 29.6589 53.1885 29.5977 56.1924Z" fill="#060606"/>
<path d="M31.4316 47.4368C31.5306 47.5299 32.6348 47.9831 34.3568 48.6308C35.3464 46.2161 36.7734 43.9792 38.5749 42.0723C37.2363 40.8164 36.4681 40.0957 36.2708 39.9102C34.2057 42.0944 32.5684 44.6634 31.4316 47.4368Z" fill="#1C1C1C"/>
<path d="M36.2695 39.9095C36.4668 40.095 37.235 40.8158 38.5736 42.0716C40.3639 40.1523 42.5026 38.5924 44.8477 37.4557C44.0918 35.7786 43.5729 34.7044 43.474 34.6113C40.778 35.9167 38.3197 37.709 36.2695 39.9095Z" fill="#2F2F2F"/>
<path d="M43.4746 34.612C43.5736 34.7051 44.0924 35.7793 44.8483 37.4564C47.194 36.3197 49.7467 35.6068 52.3652 35.3815C52.1908 33.2819 52.1035 32.2324 52.1035 32.2324C49.1042 32.487 46.1706 33.306 43.4746 34.612Z" fill="#414141"/>
<path d="M51.3184 22.7859C51.4928 24.8855 51.5801 25.935 51.5801 25.935C51.5898 25.9343 51.5996 25.933 51.6094 25.9323C51.6094 25.9323 51.5234 24.8828 51.3509 22.7832C51.3398 22.7839 51.3288 22.7852 51.3184 22.7859Z" fill="#575757"/>
<path d="M51.5801 25.9343C51.6673 26.9838 51.7546 28.0333 51.8411 29.0834C51.8502 29.0821 51.8594 29.0814 51.8678 29.0807C51.7819 28.0312 51.6953 26.9811 51.6094 25.9316C51.5996 25.9323 51.5898 25.9336 51.5801 25.9343Z" fill="#575757"/>
<path d="M51.8418 29.0837C51.929 30.1332 52.0163 31.1827 52.1035 32.2321C52.1114 32.2315 52.1191 32.2308 52.127 32.2301C52.041 31.1807 51.9551 30.1312 51.8685 29.0811C51.8601 29.0817 51.8509 29.0823 51.8418 29.0837Z" fill="#575757"/>
<path d="M52.1035 32.2325C52.1035 32.2325 52.1908 33.2819 52.3652 35.3816C52.3724 35.3809 52.3789 35.3803 52.3861 35.3796C52.2136 33.2806 52.127 32.2305 52.127 32.2305C52.1191 32.2311 52.1113 32.2318 52.1035 32.2325Z" fill="#575757"/>
<path d="M51.3516 22.7829C51.5241 24.8825 51.61 25.932 51.61 25.932C52.6563 25.8988 53.7025 25.8656 54.7487 25.8317C54.7487 25.8317 54.7689 24.779 54.8086 22.6729C53.6562 22.7093 52.5039 22.7464 51.3516 22.7829Z" fill="#585858"/>
<path d="M51.6094 25.9323C51.6953 26.9818 51.7819 28.0319 51.8678 29.0814C52.8086 29.0514 53.7487 29.0215 54.6888 28.9915C54.709 27.9381 54.7285 26.8854 54.7481 25.832C53.7018 25.8659 52.6556 25.8991 51.6094 25.9323Z" fill="#585858"/>
<path d="M51.8691 29.0811C51.9557 30.1312 52.0417 31.1807 52.1276 32.2301C52.9622 32.2034 53.7962 32.1768 54.6309 32.1501C54.6504 31.0973 54.6706 30.0439 54.6901 28.9912C53.75 29.0212 52.8099 29.0511 51.8691 29.0811Z" fill="#585858"/>
<path d="M52.127 32.2305C52.127 32.2305 52.2135 33.2806 52.3861 35.3796C53.1139 35.3561 53.8425 35.3327 54.571 35.3099C54.6107 33.2038 54.6302 32.1504 54.6302 32.1504C53.7956 32.1771 52.9616 32.2038 52.127 32.2305Z" fill="#585858"/>
<path d="M54.8079 22.6729C54.7682 24.779 54.748 25.8317 54.748 25.8317C58.5293 25.9033 62.2813 26.7035 65.7734 28.1325C65.8665 28.0335 66.3197 26.93 66.9675 25.208C63.1165 23.6318 58.9772 22.7503 54.8079 22.6729Z" fill="#5D5D5D"/>
<path d="M66.9674 25.208C66.3197 26.93 65.8665 28.0335 65.7734 28.1325C69.265 29.5622 72.4967 31.6214 75.2363 34.2132C75.4225 34.0153 76.1432 33.2471 77.3984 31.9092C74.3809 29.0544 70.8184 26.7835 66.9674 25.208Z" fill="#747474"/>
<path d="M77.3984 31.9092C76.1432 33.2471 75.4225 34.0153 75.2363 34.2132C77.9987 36.7829 80.2552 39.8818 81.8997 43.279C81.9928 43.18 83.0671 42.6611 84.7442 41.9046C82.931 38.1579 80.4421 34.7386 77.3984 31.9092Z" fill="#868686"/>
<path d="M84.7448 41.9043C83.0677 42.6608 81.9935 43.1797 81.9004 43.2786C83.5443 46.6751 84.5755 50.3704 84.888 54.1315C84.888 54.1315 85.9375 54.0443 88.0365 53.8698C87.696 49.7272 86.5579 45.6517 84.7448 41.9043Z" fill="#999999"/>
<path d="M54.7487 25.832C54.7292 26.8854 54.7096 27.9381 54.6895 28.9915C58.082 29.0573 61.4473 29.7747 64.5801 31.0579C64.9499 30.1471 65.4037 29.0436 65.7741 28.1328C62.2819 26.7038 58.5299 25.9036 54.7487 25.832Z" fill="#5D5D5D"/>
<path d="M65.7741 28.1328C65.4037 29.0436 64.9499 30.1471 64.5801 31.0579C67.7122 32.3411 70.6126 34.1894 73.0749 36.5176C73.7956 35.7493 74.5163 34.9818 75.237 34.2135C72.4974 31.6217 69.2656 29.5625 65.7741 28.1328Z" fill="#747474"/>
<path d="M75.2363 34.2129C74.5156 34.9811 73.7949 35.7487 73.0742 36.5169C75.5553 38.8268 77.5801 41.6055 79.0547 44.6523C79.9401 44.2246 81.0143 43.7057 81.8998 43.2786C80.2552 39.8815 77.9987 36.7825 75.2363 34.2129Z" fill="#868686"/>
<path d="M81.8997 43.2793C81.0143 43.7064 79.9401 44.2253 79.0547 44.653C80.5299 47.6992 81.4551 51.0137 81.7383 54.3939C82.7878 54.3066 83.8379 54.2194 84.8874 54.1322C84.5749 50.3711 83.5436 46.6758 81.8997 43.2793Z" fill="#999999"/>
<path d="M54.6901 28.9912C54.6706 30.0439 54.6504 31.0973 54.6309 32.1501C57.6348 32.2106 60.6126 32.846 63.3867 33.9827C63.7565 33.0719 64.2103 31.9684 64.5807 31.0576C61.4479 29.7744 58.0827 29.057 54.6901 28.9912Z" fill="#5D5D5D"/>
<path d="M64.5807 31.0576C64.2103 31.9684 63.7565 33.0719 63.3867 33.9827C66.1602 35.1188 68.7292 36.7568 70.9134 38.8213C71.6341 38.053 72.3548 37.2855 73.0755 36.5172C70.6133 34.1891 67.7129 32.3408 64.5807 31.0576Z" fill="#737373"/>
<path d="M73.0742 36.5176C72.3535 37.2858 71.6328 38.0534 70.9121 38.8216C73.112 40.8717 74.9043 43.3307 76.2103 46.0267C77.0951 45.5989 78.1699 45.0807 79.0547 44.653C77.5801 41.6061 75.5553 38.8275 73.0742 36.5176Z" fill="#868686"/>
<path d="M79.0553 44.6523C78.1706 45.0801 77.0957 45.5983 76.2109 46.026C77.5163 48.722 78.3359 51.6556 78.5898 54.6549C79.64 54.5677 80.6895 54.4805 81.7389 54.3932C81.4557 51.013 80.5306 47.6986 79.0553 44.6523Z" fill="#999999"/>
<path d="M54.6296 32.1504C54.6296 32.1504 54.61 33.2038 54.5703 35.3099C57.1855 35.3646 59.7767 35.918 62.1914 36.9082C62.8385 35.1855 63.2923 34.082 63.3854 33.9831C60.6113 32.8464 57.6335 32.2109 54.6296 32.1504Z" fill="#5D5D5D"/>
<path d="M63.3854 33.9824C63.2923 34.0814 62.8385 35.1849 62.1914 36.9076C64.6055 37.8971 66.8431 39.3236 68.75 41.125C70.0052 39.7871 70.7259 39.0189 70.9121 38.821C68.7279 36.7565 66.1589 35.1185 63.3854 33.9824Z" fill="#737373"/>
<path d="M70.9121 38.8213C70.7259 39.0192 70.0052 39.7874 68.75 41.1253C70.6686 42.9157 72.2285 45.0544 73.3652 47.4001C75.043 46.6435 76.1172 46.1253 76.2103 46.0264C74.9043 43.3304 73.112 40.8714 70.9121 38.8213Z" fill="#868686"/>
<path d="M76.2103 46.0264C76.1172 46.1253 75.043 46.6436 73.3652 47.4001C74.502 49.7458 75.2155 52.2985 75.4408 54.917C77.5397 54.7425 78.5892 54.6553 78.5892 54.6553C78.3353 51.6559 77.5156 48.7223 76.2103 46.0264Z" fill="#999999"/>
<path d="M88.0371 53.8701C85.9381 54.0446 84.8887 54.1318 84.8887 54.1318C84.8893 54.1416 84.89 54.152 84.8907 54.1618C84.8907 54.1618 85.9408 54.0752 88.0404 53.9027C88.0391 53.8923 88.0383 53.8812 88.0371 53.8701Z" fill="#AFAFAF"/>
<path d="M84.8874 54.1318C83.8379 54.2191 82.7878 54.3063 81.7383 54.3936C81.7389 54.4026 81.7396 54.4111 81.7403 54.4202C82.7904 54.3337 83.8399 54.2477 84.8894 54.1618C84.8887 54.1521 84.8881 54.1416 84.8874 54.1318Z" fill="#AFAFAF"/>
<path d="M81.7389 54.3936C80.6895 54.4808 79.64 54.568 78.5898 54.6553C78.5905 54.6631 78.5911 54.6709 78.5918 54.6787C79.642 54.5928 80.6915 54.5062 81.7409 54.4202C81.7403 54.4112 81.7396 54.4027 81.7389 54.3936Z" fill="#AFAFAF"/>
<path d="M78.5898 54.6553C78.5898 54.6553 77.5404 54.7425 75.4414 54.917C75.4421 54.9235 75.4427 54.9307 75.4427 54.9372C77.5423 54.7647 78.5918 54.6787 78.5918 54.6787C78.5911 54.6708 78.5905 54.6631 78.5898 54.6553Z" fill="#AFAFAF"/>
<path d="M88.0404 53.9023C85.9408 54.0749 84.8906 54.1615 84.8906 54.1615C84.9245 55.2077 84.9577 56.2539 84.9909 57.3001C84.9909 57.3001 86.0443 57.3197 88.1504 57.3594C88.1133 56.207 88.0768 55.0547 88.0404 53.9023Z" fill="#AFAFAF"/>
<path d="M84.8893 54.1621C83.8398 54.248 82.7904 54.334 81.7402 54.4206C81.7708 55.3607 81.8008 56.3008 81.8307 57.2415C82.8835 57.2611 83.9369 57.2812 84.9896 57.3008C84.9564 56.2546 84.9232 55.2083 84.8893 54.1621Z" fill="#AFAFAF"/>
<path d="M81.7409 54.4199C80.6914 54.5059 79.6419 54.5925 78.5918 54.6784C78.6185 55.513 78.6452 56.347 78.6725 57.1816C79.7253 57.2012 80.778 57.2207 81.8314 57.2409C81.8014 56.3001 81.7715 55.36 81.7409 54.4199Z" fill="#AFAFAF"/>
<path d="M78.5925 54.6787C78.5925 54.6787 77.543 54.7646 75.4434 54.9372C75.4668 55.6657 75.4902 56.3942 75.5137 57.1221C77.6198 57.1618 78.6732 57.182 78.6732 57.182C78.6458 56.3473 78.6191 55.5134 78.5925 54.6787Z" fill="#AFAFAF"/>
<path d="M88.1497 57.36C86.0436 57.3203 84.9902 57.3008 84.9902 57.3008C84.8106 64.194 82.3379 71.0325 77.9141 76.3333C78.0905 76.4791 78.9023 77.1504 80.3496 78.3463C85.2214 72.5084 87.959 64.9622 88.1497 57.36Z" fill="#B5B5B5"/>
<path d="M80.349 78.346C78.9017 77.1501 78.0898 76.4788 77.9134 76.333C75.7096 78.9717 73.0645 81.2588 70.123 83.057C70.2109 83.1299 70.8203 84.1292 71.7624 85.7575C75.0072 83.7757 77.9238 81.2555 80.349 78.346Z" fill="#E5E5E5"/>
<path d="M71.763 85.7572C70.821 84.1289 70.2116 83.1296 70.1237 83.0566C67.1816 84.8548 63.9434 86.1641 60.5527 86.847C60.5527 86.847 60.7708 87.8776 61.2077 89.9388C64.9453 89.1829 68.5182 87.7396 71.763 85.7572Z" fill="#F8F8F8"/>
<path d="M84.9902 57.3005C83.9375 57.2809 82.8841 57.2607 81.8314 57.2412C81.6621 63.4254 79.4538 69.557 75.4785 74.3206C76.2904 74.9912 77.1022 75.6624 77.9141 76.333C82.3379 71.0322 84.8106 64.1937 84.9902 57.3005Z" fill="#B5B5B5"/>
<path d="M77.9147 76.3327C77.1029 75.6621 76.291 74.9909 75.4792 74.3203C73.4974 76.6881 71.123 78.7415 68.4844 80.3561C68.9993 81.2064 69.6087 82.2057 70.1244 83.0566C73.0658 81.2585 75.7109 78.9713 77.9147 76.3327Z" fill="#E5E5E5"/>
<path d="M70.1237 83.057C69.6081 82.2061 68.9987 81.2067 68.4837 80.3564C65.8451 81.9704 62.9408 83.1455 59.8984 83.7562C60.1165 84.7868 60.3346 85.8174 60.5527 86.8473C63.9434 86.1644 67.1816 84.8551 70.1237 83.057Z" fill="#F8F8F8"/>
<path d="M81.832 57.2409C80.7787 57.2207 79.7259 57.2012 78.6732 57.1816C78.5137 62.6569 76.571 68.0814 73.043 72.3073C73.8548 72.9785 74.6667 73.6491 75.4792 74.3203C79.4544 69.5566 81.6628 63.4251 81.832 57.2409Z" fill="#B5B5B5"/>
<path d="M75.4779 74.3206C74.6654 73.6494 73.8535 72.9788 73.0417 72.3076C71.2819 74.4053 69.1797 76.2256 66.8438 77.6559C67.3587 78.5062 67.9681 79.5055 68.4831 80.3564C71.1217 78.7419 73.4961 76.6885 75.4779 74.3206Z" fill="#E5E5E5"/>
<path d="M68.4837 80.3568C67.9688 79.5059 67.3594 78.5065 66.8444 77.6562C64.5085 79.0866 61.9388 80.127 59.2441 80.6654C59.4622 81.696 59.6803 82.7266 59.8984 83.7565C62.9408 83.1458 65.8451 81.9707 68.4837 80.3568Z" fill="#F8F8F8"/>
<path d="M78.6732 57.182C78.6732 57.182 77.6198 57.1618 75.5137 57.1221C75.3652 61.889 73.6869 66.6064 70.6074 70.2952C72.0553 71.4912 72.8672 72.1618 73.043 72.3076C76.571 68.0817 78.5137 62.6572 78.6732 57.182Z" fill="#B5B5B5"/>
<path d="M73.043 72.3073C72.8672 72.1615 72.0553 71.4909 70.6074 70.2949C69.069 72.1217 67.2383 73.7083 65.2051 74.9544C66.1471 76.5833 66.7565 77.5827 66.8451 77.6556C69.181 76.2253 71.2832 74.4049 73.043 72.3073Z" fill="#E5E5E5"/>
<path d="M66.8444 77.6562C66.7559 77.5833 66.1465 76.584 65.2044 74.9551C63.1719 76.2018 60.9369 77.1081 58.5898 77.5742C59.026 79.6354 59.2441 80.6654 59.2441 80.6654C61.9388 80.1269 64.5085 79.0866 66.8444 77.6562Z" fill="#F8F8F8"/>
<path d="M61.207 89.9395C60.7702 87.8783 60.5521 86.8477 60.5521 86.8477C59.2858 87.168 57.9766 87.2428 56.6895 87.4395C56.6895 87.4395 56.7767 88.4896 56.9512 90.5885C58.3704 90.3809 59.8092 90.2871 61.207 89.9395Z" fill="white"/>
<path d="M60.5534 86.847C60.3353 85.8171 60.1172 84.7865 59.8991 83.7559C58.7637 84.0482 57.5846 84.1042 56.4297 84.2904C56.5163 85.3398 56.6035 86.3893 56.6908 87.4388C57.9779 87.2422 59.2871 87.1673 60.5534 86.847Z" fill="white"/>
<path d="M59.8991 83.7562C59.681 82.7262 59.4629 81.6956 59.2448 80.665C58.2402 80.93 57.1908 80.9671 56.168 81.1416C56.2552 82.1911 56.3424 83.2412 56.4297 84.2907C57.5846 84.1045 58.7637 84.0485 59.8991 83.7562Z" fill="white"/>
<path d="M59.2448 80.6654C59.2448 80.6654 59.0267 79.6354 58.5905 77.5742C57.7175 77.8112 56.7975 77.8294 55.9062 77.9928C56.0807 80.0924 56.168 81.1419 56.168 81.1419C57.1908 80.9674 58.2402 80.9303 59.2448 80.6654Z" fill="white"/>
<path d="M56.9512 90.5885C56.7767 88.4896 56.6894 87.4395 56.6894 87.4395C56.6797 87.4408 56.6699 87.4415 56.6602 87.4421C56.6602 87.4421 56.7461 88.4916 56.9186 90.5912C56.9297 90.5906 56.9408 90.5892 56.9512 90.5885Z" fill="white"/>
<path d="M56.6901 87.4395C56.6029 86.39 56.5156 85.3405 56.429 84.291C56.42 84.2917 56.4108 84.2923 56.4023 84.293C56.4883 85.3425 56.5749 86.3926 56.6608 87.4421C56.6705 87.4414 56.6803 87.4408 56.6901 87.4395Z" fill="white"/>
<path d="M56.4297 84.2907C56.3425 83.2412 56.2552 82.1911 56.168 81.1416C56.1601 81.1423 56.1523 81.1429 56.1445 81.1436C56.2305 82.1931 56.3164 83.2432 56.403 84.2927C56.4114 84.292 56.4206 84.2914 56.4297 84.2907Z" fill="white"/>
<path d="M56.1673 81.1413C56.1673 81.1413 56.0801 80.0918 55.9056 77.9922C55.8984 77.9928 55.8919 77.9935 55.8848 77.9942C56.0573 80.0938 56.1439 81.1433 56.1439 81.1433C56.1517 81.1426 56.1595 81.142 56.1673 81.1413Z" fill="white"/>
<path d="M56.9199 90.5905C56.7474 88.4909 56.6615 87.4414 56.6615 87.4414C55.6152 87.4746 54.569 87.5085 53.5228 87.5417C53.5228 87.5417 53.5026 88.5951 53.4629 90.7005C54.6152 90.6641 55.7676 90.6276 56.9199 90.5905Z" fill="white"/>
<path d="M56.6602 87.4421C56.5742 86.3926 56.4876 85.3424 56.4017 84.293C55.4609 84.3229 54.5208 84.3529 53.5807 84.3835C53.5605 85.4362 53.541 86.4896 53.5215 87.5423C54.5677 87.5091 55.6139 87.4753 56.6602 87.4421Z" fill="white"/>
<path d="M56.403 84.2926C56.3164 83.2432 56.2305 82.193 56.1445 81.1436C55.3099 81.1702 54.4759 81.1969 53.6413 81.2236C53.6217 82.277 53.6016 83.3298 53.582 84.3831C54.5221 84.3525 55.4622 84.3226 56.403 84.2926Z" fill="white"/>
<path d="M56.1439 81.1432C56.1439 81.1432 56.0573 80.0937 55.8848 77.9941C55.1569 78.0176 54.4284 78.041 53.6999 78.0644C53.6602 80.1706 53.6406 81.2233 53.6406 81.2233C54.4753 81.1966 55.3092 81.1699 56.1439 81.1432Z" fill="white"/>
<path d="M53.4629 90.7008C53.5026 88.5954 53.5228 87.542 53.5228 87.542C46.2031 87.389 38.9915 84.5361 33.5612 79.6514C33.3945 79.8454 32.6921 80.6299 31.4531 82.0049C37.4336 87.387 45.3919 90.5374 53.4629 90.7008Z" fill="white"/>
<path d="M31.4531 82.0049C32.6921 80.6299 33.3945 79.8454 33.5612 79.6514C30.8412 77.2197 28.5391 74.3102 26.832 71.0732C26.6908 71.2015 25.7591 71.693 24.0371 72.5478C25.9199 76.1175 28.4557 79.3252 31.4531 82.0049Z" fill="white"/>
<path d="M24.0358 72.5478C25.7578 71.693 26.6895 71.2015 26.8307 71.0732C25.1341 67.8323 24.0313 64.2848 23.569 60.6689C23.569 60.6689 22.5247 60.8044 20.4355 61.0752C20.9447 65.0583 22.1634 68.9736 24.0358 72.5478Z" fill="white"/>
<path d="M53.5222 87.542C53.5417 86.4892 53.5612 85.4359 53.5814 84.3831C47.0137 84.2412 40.5495 81.6852 35.6686 77.2979C34.9661 78.0824 34.2637 78.8669 33.5605 79.6514C38.9909 84.5361 46.2025 87.389 53.5222 87.542Z" fill="white"/>
<path d="M33.5612 79.6517C34.2643 78.8672 34.9668 78.0827 35.6693 77.2982C33.2266 75.1139 31.1582 72.5026 29.627 69.5996C28.6953 70.0911 27.7637 70.5827 26.832 71.0736C28.5391 74.3105 30.8411 77.22 33.5612 79.6517Z" fill="white"/>
<path d="M26.832 71.0729C27.7637 70.582 28.6953 70.0905 29.627 69.5989C28.1068 66.6907 27.1191 63.5117 26.7038 60.2617C25.6595 60.3971 24.6146 60.5332 23.5703 60.6686C24.0326 64.2845 25.1354 67.832 26.832 71.0729Z" fill="white"/>
<path d="M53.5808 84.3828C53.6003 83.3294 53.6205 82.2767 53.64 81.2233C47.8249 81.0924 42.1074 78.834 37.776 74.9434C37.0736 75.7285 36.3711 76.513 35.668 77.2975C40.5488 81.6849 47.013 84.2409 53.5808 84.3828Z" fill="white"/>
<path d="M35.6693 77.2975C36.3724 76.513 37.0749 75.7285 37.7774 74.9433C35.6113 73.0078 33.7767 70.6947 32.4212 68.125C31.4896 68.6165 30.5579 69.1081 29.627 69.599C31.1582 72.5019 33.2266 75.1133 35.6693 77.2975Z" fill="white"/>
<path d="M29.6263 69.5989C30.5573 69.1081 31.4889 68.6165 32.4206 68.125C31.0768 65.5495 30.2044 62.7389 29.8366 59.8555C28.7923 59.9909 27.7474 60.1263 26.7031 60.2617C27.1185 63.5117 28.1061 66.6907 29.6263 69.5989Z" fill="white"/>
<path d="M53.6413 81.2233C53.6413 81.2233 53.6608 80.1706 53.7005 78.0644C48.6374 77.944 43.6673 75.9831 39.8854 72.5898C38.6471 73.9655 37.944 74.75 37.7773 74.9434C42.1087 78.834 47.8262 81.0924 53.6413 81.2233Z" fill="white"/>
<path d="M37.776 74.9437C37.9427 74.7503 38.6458 73.9658 39.8841 72.5902C37.9954 70.9027 36.3945 68.8877 35.2148 66.6514C33.4928 67.5055 32.5612 67.9971 32.4199 68.1253C33.7754 70.695 35.61 73.0081 37.776 74.9437Z" fill="white"/>
<path d="M32.4199 68.1256C32.5612 67.9974 33.4928 67.5058 35.2148 66.6517C34.0469 64.4088 33.2904 61.9661 32.9694 59.4492C30.8802 59.7207 29.8359 59.8561 29.8359 59.8561C30.2038 62.7396 31.0762 65.5501 32.4199 68.1256Z" fill="white"/>
<path d="M20.4362 61.0749C22.5254 60.804 23.5697 60.6686 23.5697 60.6686C23.5697 60.6686 23.5072 60.1882 23.3809 59.2266C23.3809 59.2266 22.3314 59.3138 20.2324 59.487C20.3685 60.5456 20.4362 61.0749 20.4362 61.0749Z" fill="white"/>
<path d="M23.5697 60.6686C24.6139 60.5332 25.6589 60.3971 26.7031 60.2617C26.7031 60.2617 26.6452 59.8301 26.53 58.9668C25.4805 59.0534 24.431 59.14 23.3809 59.2266C23.5072 60.1882 23.5697 60.6686 23.5697 60.6686Z" fill="white"/>
<path d="M26.7025 60.2624C27.7467 60.127 28.7917 59.9915 29.8359 59.8561C29.8359 59.8561 29.7832 59.4733 29.6784 58.707C28.6289 58.7943 27.5788 58.8809 26.5293 58.9674C26.6445 59.8307 26.7025 60.2624 26.7025 60.2624Z" fill="white"/>
<path d="M29.8372 59.8561C29.8372 59.8561 30.8815 59.7207 32.9707 59.4492C32.9707 59.4492 32.9232 59.1152 32.8288 58.4473C30.7292 58.6204 29.6797 58.707 29.6797 58.707C29.7845 59.4733 29.8372 59.8561 29.8372 59.8561Z" fill="white"/>
</g>
</g>
</mask>
<g mask="url(#mask6_11_1550)">
<path d="M20.2331 59.487C22.332 59.3138 23.3815 59.2266 23.3815 59.2266C23.3483 58.2578 23.3314 57.7734 23.3314 57.7734C23.3314 57.7734 22.2786 57.8112 20.1738 57.8867C20.1738 57.8867 20.1934 58.4199 20.2331 59.487Z" fill="#FDDC04"/>
<path d="M23.3802 59.2269C24.4303 59.1403 25.4798 59.0537 26.5293 58.9671C26.5013 58.0967 26.4876 57.6611 26.4876 57.6611C25.4349 57.6989 24.3828 57.7367 23.3301 57.7738C23.3301 57.7738 23.347 58.2581 23.3802 59.2269Z" fill="#FDDC04"/>
<path d="M26.5299 58.9671C27.5794 58.8805 28.6296 58.7939 29.679 58.7067C29.6569 57.9346 29.6458 57.5479 29.6458 57.5479C28.5938 57.5856 27.541 57.6234 26.4883 57.6611C26.4883 57.6611 26.5019 58.0967 26.5299 58.9671Z" fill="#FDDC04"/>
<path d="M29.6797 58.707C29.6797 58.707 30.7292 58.6204 32.8288 58.4473C32.8125 57.7728 32.804 57.4355 32.804 57.4355C30.6992 57.5104 29.6465 57.5482 29.6465 57.5482C29.6465 57.5482 29.6576 57.9349 29.6797 58.707Z" fill="#FDDC04"/>
<path d="M20.1732 57.8867C22.278 57.8112 23.3307 57.7734 23.3307 57.7734C23.3138 57.207 23.2969 56.64 23.2806 56.0729C23.2806 56.0729 22.2272 56.0534 20.1211 56.0137C20.1387 56.638 20.1556 57.2624 20.1732 57.8867Z" fill="#FDDC04"/>
<path d="M23.3314 57.7738C24.3841 57.7366 25.4362 57.6989 26.4889 57.6611C26.4727 57.1514 26.4564 56.6422 26.4401 56.1325C25.3874 56.1129 24.334 56.0934 23.2812 56.0732C23.2975 56.6403 23.3144 57.2073 23.3314 57.7738Z" fill="#FDDC04"/>
<path d="M26.4883 57.6615C27.541 57.6237 28.5937 57.5859 29.6458 57.5482C29.6302 57.0964 29.6146 56.6445 29.5983 56.1927C28.5456 56.1725 27.4928 56.153 26.4395 56.1328C26.4557 56.6426 26.472 57.1517 26.4883 57.6615Z" fill="#FDDC04"/>
<path d="M29.6452 57.5478C29.6452 57.5478 30.6979 57.5101 32.8027 57.4352C32.7878 57.0407 32.7721 56.6462 32.7572 56.2516C30.651 56.2119 29.5977 56.1924 29.5977 56.1924C29.6139 56.6442 29.6296 57.096 29.6452 57.5478Z" fill="#FDDC04"/>
<path d="M20.1211 56.014C22.2272 56.0537 23.2806 56.0732 23.2806 56.0732C23.4238 48.5114 26.4785 41.0654 31.6621 35.585C31.4642 35.3994 30.696 34.6787 29.3581 33.4229C23.6478 39.4587 20.276 47.6748 20.1211 56.014Z" fill="#FDDC04"/>
<path d="M29.3574 33.4225C30.6953 34.6784 31.4635 35.3991 31.6615 35.5846C36.8001 30.0599 44.0567 26.5579 51.5801 25.9342C51.5801 25.9342 51.4929 24.8848 51.3184 22.7852C43.0332 23.4674 35.0156 27.3359 29.3574 33.4225Z" fill="#FDDC04"/>
<path d="M23.2812 56.0732C24.334 56.0934 25.3874 56.1129 26.4401 56.1325C26.5723 49.348 29.3099 42.6722 33.9668 37.7477C33.1986 37.0264 32.4303 36.3057 31.6628 35.585C26.4792 41.0654 23.4245 48.5114 23.2812 56.0732Z" fill="#FDDC04"/>
<path d="M31.6621 35.585C32.4297 36.3057 33.1979 37.0264 33.9661 37.7477C38.5853 32.7848 45.0814 29.6494 51.8418 29.0837C51.7552 28.0335 51.668 26.984 51.5807 25.9346C44.0573 26.5583 36.8008 30.0602 31.6621 35.585Z" fill="#FDDC04"/>
<path d="M26.4395 56.1328C27.4928 56.153 28.5456 56.1725 29.5983 56.1927C29.7201 50.1849 32.14 44.2793 36.2702 39.9102C35.502 39.1895 34.7337 38.4687 33.9662 37.748C29.3092 42.6725 26.5716 49.3483 26.4395 56.1328Z" fill="#FDDC04"/>
<path d="M33.9668 37.748C34.7344 38.4687 35.5026 39.1894 36.2708 39.9101C40.3711 35.5098 46.1055 32.7409 52.1042 32.2324C52.0169 31.1829 51.9297 30.1335 51.8425 29.084C45.082 29.6497 38.5859 32.7852 33.9668 37.748Z" fill="#FDDC04"/>
<path d="M29.5977 56.1927C29.5977 56.1927 30.651 56.2122 32.7572 56.2519C32.8672 51.0215 34.9707 45.8861 38.5736 42.0723C37.235 40.8164 36.4668 40.0957 36.2695 39.9102C32.1393 44.2793 29.7194 50.1849 29.5977 56.1927Z" fill="#FDDC04"/>
<path d="M36.2695 39.9101C36.4668 40.0957 37.235 40.8164 38.5736 42.0723C42.1543 38.2344 47.1276 35.832 52.3646 35.3815C52.1901 33.2819 52.1029 32.2324 52.1029 32.2324C46.1042 32.7409 40.3698 35.5098 36.2695 39.9101Z" fill="#FDDC04"/>
<path d="M51.3184 22.7859C51.4928 24.8855 51.5801 25.935 51.5801 25.935C51.5898 25.9343 51.5996 25.933 51.6094 25.9323C51.6094 25.9323 51.5234 24.8828 51.3509 22.7832C51.3398 22.7839 51.3288 22.7852 51.3184 22.7859Z" fill="#FDDC04"/>
<path d="M51.5801 25.9343C51.6673 26.9838 51.7546 28.0333 51.8411 29.0834C51.8502 29.0821 51.8594 29.0814 51.8678 29.0807C51.7819 28.0312 51.6953 26.9811 51.6094 25.9316C51.5996 25.9323 51.5898 25.9336 51.5801 25.9343Z" fill="#FDDC04"/>
<path d="M51.8418 29.0837C51.929 30.1332 52.0163 31.1827 52.1035 32.2321C52.1114 32.2315 52.1191 32.2308 52.127 32.2301C52.041 31.1807 51.9551 30.1312 51.8685 29.0811C51.8601 29.0817 51.8509 29.0823 51.8418 29.0837Z" fill="#FDDC04"/>
<path d="M52.1035 32.2325C52.1035 32.2325 52.1908 33.2819 52.3652 35.3816C52.3724 35.3809 52.3789 35.3803 52.3861 35.3796C52.2136 33.2806 52.127 32.2305 52.127 32.2305C52.1191 32.2311 52.1113 32.2318 52.1035 32.2325Z" fill="#FDDC04"/>
<path d="M51.3516 22.7829C51.5241 24.8825 51.61 25.932 51.61 25.932C52.6563 25.8988 53.7025 25.8656 54.7487 25.8317C54.7487 25.8317 54.7689 24.779 54.8086 22.6729C53.6562 22.7093 52.5039 22.7464 51.3516 22.7829Z" fill="#FDDC04"/>
<path d="M51.6094 25.9323C51.6953 26.9818 51.7819 28.0319 51.8678 29.0814C52.8086 29.0514 53.7487 29.0215 54.6888 28.9915C54.709 27.9381 54.7285 26.8854 54.7481 25.832C53.7018 25.8659 52.6556 25.8991 51.6094 25.9323Z" fill="#FDDC04"/>
<path d="M51.8691 29.0811C51.9557 30.1312 52.0417 31.1807 52.1276 32.2301C52.9622 32.2034 53.7962 32.1768 54.6309 32.1501C54.6504 31.0973 54.6706 30.0439 54.6901 28.9912C53.75 29.0212 52.8099 29.0511 51.8691 29.0811Z" fill="#FDDC04"/>
<path d="M52.127 32.2305C52.127 32.2305 52.2135 33.2806 52.3861 35.3796C53.1139 35.3561 53.8425 35.3327 54.571 35.3099C54.6107 33.2038 54.6302 32.1504 54.6302 32.1504C53.7956 32.1771 52.9616 32.2038 52.127 32.2305Z" fill="#FDDC04"/>
<path d="M54.8079 22.6729C54.7682 24.779 54.748 25.8317 54.748 25.8317C62.3106 25.9756 69.7565 29.0303 75.2363 34.2132C75.4225 34.0153 76.1432 33.2471 77.3985 31.9092C71.3633 26.1989 63.1471 22.8271 54.8079 22.6729Z" fill="#FDDC04"/>
<path d="M77.3984 31.9092C76.1432 33.2471 75.4225 34.0153 75.2363 34.2132C80.7611 39.3525 84.263 46.609 84.8874 54.1318C84.8874 54.1318 85.9369 54.0446 88.0358 53.8701C87.3542 45.5849 83.4857 37.568 77.3984 31.9092Z" fill="#FDDC04"/>
<path d="M54.7487 25.832C54.7292 26.8854 54.7096 27.9381 54.6895 28.9915C61.4746 29.1237 68.1504 31.8613 73.0749 36.5176C73.7956 35.7493 74.5163 34.9818 75.237 34.2135C69.7572 29.0306 62.3112 25.9759 54.7487 25.832Z" fill="#FDDC04"/>
<path d="M75.2363 34.2129C74.5156 34.9811 73.7949 35.7487 73.0742 36.5169C78.0365 41.1367 81.1719 47.6321 81.7383 54.3932C82.7878 54.306 83.8379 54.2187 84.8874 54.1315C84.263 46.6087 80.7611 39.3522 75.2363 34.2129Z" fill="#FDDC04"/>
<path d="M54.6901 28.9912C54.6706 30.0439 54.6504 31.0973 54.6309 32.1501C60.638 32.2712 66.5443 34.6917 70.9134 38.8213C71.6341 38.053 72.3548 37.2855 73.0755 36.5172C68.1511 31.861 61.4753 29.1234 54.6901 28.9912Z" fill="#FDDC04"/>
<path d="M73.0742 36.5176C72.3535 37.2858 71.6328 38.0534 70.9121 38.8216C75.3125 42.9219 78.0807 48.6562 78.5892 54.6556C79.6393 54.5683 80.6888 54.4811 81.7383 54.3939C81.1719 47.6328 78.0365 41.1374 73.0742 36.5176Z" fill="#FDDC04"/>
<path d="M54.6296 32.1504C54.6296 32.1504 54.61 33.2038 54.5703 35.3099C59.8001 35.4199 64.9362 37.5228 68.75 41.1256C70.0052 39.7878 70.7259 39.0195 70.9121 38.8216C66.543 34.6921 60.6367 32.2715 54.6296 32.1504Z" fill="#FDDC04"/>
<path d="M70.9121 38.8213C70.7259 39.0192 70.0052 39.7874 68.75 41.1253C72.5879 44.7061 74.9902 49.68 75.4408 54.917C77.5397 54.7425 78.5892 54.6553 78.5892 54.6553C78.0807 48.6559 75.3125 42.9215 70.9121 38.8213Z" fill="#FDDC04"/>
<path d="M88.0371 53.8701C85.9381 54.0446 84.8887 54.1318 84.8887 54.1318C84.8893 54.1416 84.89 54.152 84.8907 54.1618C84.8907 54.1618 85.9408 54.0752 88.0404 53.9027C88.0391 53.8923 88.0383 53.8812 88.0371 53.8701Z" fill="#FDDC04"/>
<path d="M84.8874 54.1318C83.8379 54.2191 82.7878 54.3063 81.7383 54.3936C81.7389 54.4026 81.7396 54.4111 81.7403 54.4202C82.7904 54.3337 83.8399 54.2477 84.8894 54.1618C84.8887 54.1521 84.8881 54.1416 84.8874 54.1318Z" fill="#FDDC04"/>
<path d="M81.7389 54.3936C80.6895 54.4808 79.64 54.568 78.5898 54.6553C78.5905 54.6631 78.5911 54.6709 78.5918 54.6787C79.642 54.5928 80.6915 54.5062 81.7409 54.4202C81.7403 54.4112 81.7396 54.4027 81.7389 54.3936Z" fill="#FDDC04"/>
<path d="M78.5898 54.6553C78.5898 54.6553 77.5404 54.7425 75.4414 54.917C75.4421 54.9235 75.4427 54.9307 75.4427 54.9372C77.5423 54.7647 78.5918 54.6787 78.5918 54.6787C78.5911 54.6708 78.5905 54.6631 78.5898 54.6553Z" fill="#FDDC04"/>
<path d="M88.0404 53.9023C85.9408 54.0749 84.8906 54.1615 84.8906 54.1615C84.9245 55.2077 84.9577 56.2539 84.9909 57.3001C84.9909 57.3001 86.0443 57.3197 88.1504 57.3594C88.1133 56.207 88.0768 55.0547 88.0404 53.9023Z" fill="#FDDC04"/>
<path d="M84.8893 54.1621C83.8398 54.248 82.7904 54.334 81.7402 54.4206C81.7708 55.3607 81.8008 56.3008 81.8307 57.2415C82.8835 57.2611 83.9369 57.2812 84.9896 57.3008C84.9564 56.2546 84.9232 55.2083 84.8893 54.1621Z" fill="#FDDC04"/>
<path d="M81.7409 54.4199C80.6914 54.5059 79.6419 54.5925 78.5918 54.6784C78.6185 55.513 78.6452 56.347 78.6725 57.1816C79.7253 57.2012 80.778 57.2207 81.8314 57.2409C81.8014 56.3001 81.7715 55.36 81.7409 54.4199Z" fill="#FDDC04"/>
<path d="M78.5925 54.6787C78.5925 54.6787 77.543 54.7646 75.4434 54.9372C75.4668 55.6657 75.4902 56.3942 75.5137 57.1221C77.6198 57.1618 78.6732 57.182 78.6732 57.182C78.6458 56.3473 78.6191 55.5134 78.5925 54.6787Z" fill="#FDDC04"/>
<path d="M88.1497 57.36C86.0436 57.3203 84.9902 57.3008 84.9902 57.3008C84.8106 64.194 82.3379 71.0325 77.9141 76.3333C78.0905 76.4791 78.9023 77.1504 80.3496 78.3463C85.2214 72.5084 87.959 64.9622 88.1497 57.36Z" fill="#FDDC04"/>
<path d="M80.3496 78.346C78.9024 77.1501 78.0905 76.4788 77.9141 76.333C73.5072 81.611 67.3333 85.4808 60.5527 86.8473C60.5527 86.8473 60.7708 87.8779 61.2077 89.9391C68.683 88.4274 75.4994 84.1644 80.3496 78.346Z" fill="#FDDC04"/>
<path d="M84.9902 57.3005C83.9375 57.2809 82.8841 57.2607 81.8314 57.2412C81.6621 63.4254 79.4538 69.557 75.4785 74.3206C76.2904 74.9912 77.1022 75.6624 77.9141 76.333C82.3379 71.0322 84.8106 64.1937 84.9902 57.3005Z" fill="#FDDC04"/>
<path d="M77.9141 76.3327C77.1022 75.6621 76.2904 74.9909 75.4785 74.3203C71.5143 79.0566 65.9831 82.5338 59.8984 83.7558C60.1165 84.7864 60.3346 85.817 60.5527 86.847C67.3333 85.4805 73.5072 81.6107 77.9141 76.3327Z" fill="#FDDC04"/>
<path d="M81.832 57.2409C80.7787 57.2207 79.7259 57.2012 78.6732 57.1816C78.5137 62.6569 76.571 68.0814 73.043 72.3073C73.8548 72.9785 74.6667 73.6491 75.4792 74.3203C79.4544 69.5566 81.6628 63.4251 81.832 57.2409Z" fill="#FDDC04"/>
<path d="M75.4785 74.3206C74.666 73.6494 73.8542 72.9788 73.0423 72.3076C69.5221 76.5029 64.6335 79.5876 59.2441 80.665C59.4622 81.6956 59.6803 82.7262 59.8984 83.7562C65.9831 82.5342 71.5143 79.057 75.4785 74.3206Z" fill="#FDDC04"/>
<path d="M78.6732 57.182C78.6732 57.182 77.6198 57.1618 75.5137 57.1221C75.3652 61.889 73.6869 66.6064 70.6074 70.2952C72.0553 71.4912 72.8672 72.1618 73.043 72.3076C76.571 68.0817 78.5137 62.6572 78.6732 57.182Z" fill="#FDDC04"/>
<path d="M73.0423 72.3073C72.8665 72.1615 72.0547 71.4909 70.6068 70.2949C67.53 73.9486 63.2839 76.6406 58.5898 77.5736C59.026 79.6348 59.2441 80.6647 59.2441 80.6647C64.6335 79.5872 69.5221 76.5026 73.0423 72.3073Z" fill="#FDDC04"/>
<path d="M61.207 89.9395C60.7702 87.8783 60.5521 86.8477 60.5521 86.8477C59.2858 87.168 57.9766 87.2428 56.6895 87.4395C56.6895 87.4395 56.7767 88.4896 56.9512 90.5885C58.3704 90.3809 59.8092 90.2871 61.207 89.9395Z" fill="#FDDC04"/>
<path d="M60.5534 86.847C60.3353 85.8171 60.1172 84.7865 59.8991 83.7559C58.7637 84.0482 57.5846 84.1042 56.4297 84.2904C56.5163 85.3398 56.6035 86.3893 56.6908 87.4388C57.9779 87.2422 59.2871 87.1673 60.5534 86.847Z" fill="#FDDC04"/>
<path d="M59.8991 83.7562C59.681 82.7262 59.4629 81.6956 59.2448 80.665C58.2402 80.93 57.1908 80.9671 56.168 81.1416C56.2552 82.1911 56.3424 83.2412 56.4297 84.2907C57.5846 84.1045 58.7637 84.0485 59.8991 83.7562Z" fill="#FDDC04"/>
<path d="M59.2448 80.6654C59.2448 80.6654 59.0267 79.6354 58.5905 77.5742C57.7175 77.8112 56.7975 77.8294 55.9062 77.9928C56.0807 80.0924 56.168 81.1419 56.168 81.1419C57.1908 80.9674 58.2402 80.9303 59.2448 80.6654Z" fill="#FDDC04"/>
<path d="M56.9512 90.5885C56.7767 88.4896 56.6894 87.4395 56.6894 87.4395C56.6797 87.4408 56.6699 87.4415 56.6602 87.4421C56.6602 87.4421 56.7461 88.4916 56.9186 90.5912C56.9297 90.5906 56.9408 90.5892 56.9512 90.5885Z" fill="#FDDC04"/>
<path d="M56.6901 87.4395C56.6029 86.39 56.5156 85.3405 56.429 84.291C56.42 84.2917 56.4108 84.2923 56.4023 84.293C56.4883 85.3425 56.5749 86.3926 56.6608 87.4421C56.6705 87.4414 56.6803 87.4408 56.6901 87.4395Z" fill="#FDDC04"/>
<path d="M56.4297 84.2907C56.3425 83.2412 56.2552 82.1911 56.168 81.1416C56.1601 81.1423 56.1523 81.1429 56.1445 81.1436C56.2305 82.1931 56.3164 83.2432 56.403 84.2927C56.4114 84.292 56.4206 84.2914 56.4297 84.2907Z" fill="#FDDC04"/>
<path d="M56.1673 81.1413C56.1673 81.1413 56.0801 80.0918 55.9056 77.9922C55.8984 77.9928 55.8919 77.9935 55.8848 77.9942C56.0573 80.0938 56.1439 81.1433 56.1439 81.1433C56.1517 81.1426 56.1595 81.142 56.1673 81.1413Z" fill="#FDDC04"/>
<path d="M56.9199 90.5905C56.7474 88.4909 56.6615 87.4414 56.6615 87.4414C55.6152 87.4746 54.569 87.5085 53.5228 87.5417C53.5228 87.5417 53.5026 88.5951 53.4629 90.7005C54.6152 90.6641 55.7676 90.6276 56.9199 90.5905Z" fill="#FDDC04"/>
<path d="M56.6602 87.4421C56.5742 86.3926 56.4876 85.3424 56.4017 84.293C55.4609 84.3229 54.5208 84.3529 53.5807 84.3835C53.5605 85.4362 53.541 86.4896 53.5215 87.5423C54.5677 87.5091 55.6139 87.4753 56.6602 87.4421Z" fill="#FDDC04"/>
<path d="M56.403 84.2926C56.3164 83.2432 56.2305 82.193 56.1445 81.1436C55.3099 81.1702 54.4759 81.1969 53.6413 81.2236C53.6217 82.277 53.6016 83.3298 53.582 84.3831C54.5221 84.3525 55.4622 84.3226 56.403 84.2926Z" fill="#FDDC04"/>
<path d="M56.1439 81.1432C56.1439 81.1432 56.0573 80.0937 55.8848 77.9941C55.1569 78.0176 54.4284 78.041 53.6999 78.0644C53.6602 80.1706 53.6406 81.2233 53.6406 81.2233C54.4753 81.1966 55.3092 81.1699 56.1439 81.1432Z" fill="#FDDC04"/>
<path d="M53.4629 90.7008C53.5026 88.5954 53.5228 87.542 53.5228 87.542C46.2031 87.389 38.9915 84.5361 33.5612 79.6514C33.3945 79.8454 32.6921 80.6299 31.4531 82.0049C37.4336 87.387 45.3919 90.5374 53.4629 90.7008Z" fill="#FDDC04"/>
<path d="M31.4531 82.0049C32.6921 80.6299 33.3945 79.8454 33.5612 79.6514C30.8412 77.2197 28.5391 74.3102 26.832 71.0732C26.6908 71.2015 25.7591 71.693 24.0371 72.5478C25.9199 76.1175 28.4557 79.3252 31.4531 82.0049Z" fill="#FDDC04"/>
<path d="M24.0358 72.5478C25.7578 71.693 26.6895 71.2015 26.8307 71.0732C25.1341 67.8323 24.0313 64.2848 23.569 60.6689C23.569 60.6689 22.5247 60.8044 20.4355 61.0752C20.9447 65.0583 22.1634 68.9736 24.0358 72.5478Z" fill="#FDDC04"/>
<path d="M53.5222 87.542C53.5417 86.4892 53.5612 85.4359 53.5814 84.3831C47.0137 84.2412 40.5495 81.6852 35.6686 77.2979C34.9661 78.0824 34.2637 78.8669 33.5605 79.6514C38.9909 84.5361 46.2025 87.389 53.5222 87.542Z" fill="#FDDC04"/>
<path d="M33.5612 79.6517C34.2643 78.8672 34.9668 78.0827 35.6693 77.2982C33.2266 75.1139 31.1582 72.5026 29.627 69.5996C28.6953 70.0911 27.7637 70.5827 26.832 71.0736C28.5391 74.3105 30.8411 77.22 33.5612 79.6517Z" fill="#FDDC04"/>
<path d="M26.832 71.0729C27.7637 70.582 28.6953 70.0905 29.627 69.5989C28.1068 66.6907 27.1191 63.5117 26.7038 60.2617C25.6595 60.3971 24.6146 60.5332 23.5703 60.6686C24.0326 64.2845 25.1354 67.832 26.832 71.0729Z" fill="#FDDC04"/>
<path d="M53.5808 84.3828C53.6003 83.3294 53.6205 82.2767 53.64 81.2233C47.8249 81.0924 42.1074 78.834 37.776 74.9434C37.0736 75.7285 36.3711 76.513 35.668 77.2975C40.5488 81.6849 47.013 84.2409 53.5808 84.3828Z" fill="#FDDC04"/>
<path d="M35.6693 77.2975C36.3724 76.513 37.0749 75.7285 37.7774 74.9433C35.6113 73.0078 33.7767 70.6947 32.4212 68.125C31.4896 68.6165 30.5579 69.1081 29.627 69.599C31.1582 72.5019 33.2266 75.1133 35.6693 77.2975Z" fill="#FDDC04"/>
<path d="M29.6263 69.5989C30.5573 69.1081 31.4889 68.6165 32.4206 68.125C31.0768 65.5495 30.2044 62.7389 29.8366 59.8555C28.7923 59.9909 27.7474 60.1263 26.7031 60.2617C27.1185 63.5117 28.1061 66.6907 29.6263 69.5989Z" fill="#FDDC04"/>
<path d="M53.6413 81.2233C53.6413 81.2233 53.6608 80.1706 53.7005 78.0644C48.6374 77.944 43.6673 75.9831 39.8854 72.5898C38.6471 73.9655 37.944 74.75 37.7773 74.9434C42.1087 78.834 47.8262 81.0924 53.6413 81.2233Z" fill="#FDDC04"/>
<path d="M37.776 74.9437C37.9427 74.7503 38.6458 73.9658 39.8841 72.5902C37.9954 70.9027 36.3945 68.8877 35.2148 66.6514C33.4928 67.5055 32.5612 67.9971 32.4199 68.1253C33.7754 70.695 35.61 73.0081 37.776 74.9437Z" fill="#FDDC04"/>
<path d="M32.4199 68.1256C32.5612 67.9974 33.4928 67.5058 35.2148 66.6517C34.0469 64.4088 33.2904 61.9661 32.9694 59.4492C30.8802 59.7207 29.8359 59.8561 29.8359 59.8561C30.2038 62.7396 31.0762 65.5501 32.4199 68.1256Z" fill="#FDDC04"/>
<path d="M20.4362 61.0749C22.5254 60.804 23.5697 60.6686 23.5697 60.6686C23.5697 60.6686 23.5072 60.1882 23.3809 59.2266C23.3809 59.2266 22.3314 59.3138 20.2324 59.487C20.3685 60.5456 20.4362 61.0749 20.4362 61.0749Z" fill="#FDDC04"/>
<path d="M23.5697 60.6686C24.6139 60.5332 25.6589 60.3971 26.7031 60.2617C26.7031 60.2617 26.6452 59.8301 26.53 58.9668C25.4805 59.0534 24.431 59.14 23.3809 59.2266C23.5072 60.1882 23.5697 60.6686 23.5697 60.6686Z" fill="#FDDC04"/>
<path d="M26.7025 60.2624C27.7467 60.127 28.7917 59.9915 29.8359 59.8561C29.8359 59.8561 29.7832 59.4733 29.6784 58.707C28.6289 58.7943 27.5788 58.8809 26.5293 58.9674C26.6445 59.8307 26.7025 60.2624 26.7025 60.2624Z" fill="#FDDC04"/>
<path d="M29.8372 59.8561C29.8372 59.8561 30.8815 59.7207 32.9707 59.4492C32.9707 59.4492 32.9232 59.1152 32.8288 58.4473C30.7292 58.6204 29.6797 58.707 29.6797 58.707C29.7845 59.4733 29.8372 59.8561 29.8372 59.8561Z" fill="#FDDC04"/>
</g>
</g>
<mask id="mask9_11_1550" style="mask-type:luminance" maskUnits="userSpaceOnUse" x="20" y="52" width="13" height="9">
<path d="M26.4973 52.3733C26.2293 52.3733 25.9573 52.3906 25.6853 52.4253C22.6626 52.8133 20.4186 55.2786 20.1973 58.2026C20.2253 58.8106 20.2666 59.4146 20.3253 60.0146L32.7079 58.7987C32.6959 58.6827 32.6853 58.5653 32.6759 58.448C32.5893 57.3986 32.3359 56.3613 31.9066 55.444C30.7906 53.58 28.7533 52.3733 26.4999 52.3733C26.4986 52.3733 26.4986 52.3733 26.4973 52.3733Z" fill="white"/>
</mask>
<g mask="url(#mask9_11_1550)">
<path d="M20.4362 61.0758C22.5254 60.805 23.5697 60.6696 23.5697 60.6696C23.5072 60.1891 23.444 59.7087 23.3809 59.2275C23.3809 59.2275 22.3314 59.3148 20.2324 59.488C20.3001 60.0173 20.3685 60.5466 20.4362 61.0758Z" fill="#FDDC04"/>
<path d="M23.5697 60.6696C24.6139 60.5342 25.6589 60.3981 26.7031 60.2627C26.6452 59.8311 26.5879 59.3994 26.53 58.9678C25.4805 59.0544 24.431 59.141 23.3809 59.2275C23.444 59.7087 23.5072 60.1891 23.5697 60.6696Z" fill="#FDDC04"/>
<path d="M26.7044 60.2624C27.7487 60.127 28.7936 59.9915 29.8379 59.8561C29.7852 59.4733 29.7331 59.0898 29.6803 58.707C28.6309 58.7943 27.5807 58.8809 26.5312 58.9674C26.5892 59.3991 26.6465 59.8307 26.7044 60.2624Z" fill="#FDDC04"/>
<path d="M29.8372 59.8561C29.8372 59.8561 30.8815 59.7207 32.9707 59.4492C32.9232 59.1152 32.8763 58.7812 32.8288 58.4473C30.7292 58.6204 29.6797 58.707 29.6797 58.707C29.7324 59.0898 29.7845 59.4733 29.8372 59.8561Z" fill="#FDDC04"/>
<path d="M20.2331 59.4876C22.332 59.3144 23.3815 59.2272 23.3815 59.2272C22.6882 50.8301 20.0736 34.1367 20.0736 34.1367C20.0736 34.1367 19.0508 34.2214 17.0059 34.3906C17.0059 34.3906 19.5391 51.0905 20.2331 59.4876Z" fill="#FDDC04"/>
<path d="M23.3822 59.2275C24.4323 59.1409 25.4818 59.0543 26.5313 58.9678C25.8379 50.5706 23.1419 33.8838 23.1419 33.8838C22.1191 33.9684 21.097 34.0531 20.0742 34.137C20.0742 34.137 22.6888 50.8304 23.3822 59.2275Z" fill="#FDDC04"/>
<path d="M26.53 58.9671C27.5794 58.8805 28.6296 58.7939 29.6791 58.7067C28.9857 50.3096 26.2083 33.6299 26.2083 33.6299C25.1856 33.7145 24.1628 33.7992 23.1406 33.8831C23.1406 33.8831 25.8366 50.57 26.53 58.9671Z" fill="#FDDC04"/>
<path d="M29.6797 58.707C29.6797 58.707 30.7292 58.6204 32.8288 58.4473C32.1354 50.0501 29.276 33.377 29.276 33.377C27.2311 33.5456 26.209 33.6302 26.209 33.6302C26.209 33.6302 28.9863 50.3099 29.6797 58.707Z" fill="#FDDC04"/>
</g>
<mask id="mask10_11_1550" style="mask-type:luminance" maskUnits="userSpaceOnUse" x="70" y="49" width="13" height="8">
<path d="M70.131 55.6497L70.1083 56.3097C70.1043 56.415 70.1003 56.519 70.0977 56.623L82.5803 56.571C82.5923 56.3844 82.5963 56.199 82.591 56.011C82.5763 55.359 82.539 54.7097 82.4817 54.0644C81.7257 51.5444 79.4337 49.6657 76.6577 49.567C76.5817 49.5644 76.507 49.563 76.4323 49.563C73.051 49.563 70.2523 52.243 70.131 55.6497Z" fill="white"/>
</mask>
<g mask="url(#mask10_11_1550)">
<mask id="mask11_11_1550" style="mask-type:luminance" maskUnits="userSpaceOnUse" x="70" y="30" width="14" height="28">
<mask id="mask12_11_1550" style="mask-type:luminance" maskUnits="userSpaceOnUse" x="69" y="30" width="15" height="28">
<path d="M69.9082 30.7136H83.3022V57.6836H69.9082V30.7136Z" fill="white"/>
</mask>
<g mask="url(#mask12_11_1550)">
<mask id="mask13_11_1550" style="mask-type:luminance" maskUnits="userSpaceOnUse" x="69" y="30" width="15" height="28">
<path d="M69.9082 30.7139H83.3015V57.6846H69.9082V30.7139Z" fill="white"/>
</mask>
<g mask="url(#mask13_11_1550)">
<path d="M83.3018 30.7139C81.251 30.762 80.2263 30.7868 80.2263 30.7868C80.2263 30.7868 79.3845 47.663 79.5831 56.0862C79.5831 56.0862 80.6364 56.0615 82.7419 56.0113C82.5433 47.5882 83.3018 30.7139 83.3018 30.7139Z" fill="black"/>
<path d="M80.2265 30.7871C79.2011 30.8112 78.1757 30.8353 77.1503 30.8594C77.1503 30.8594 76.2259 47.7376 76.4244 56.1614C77.4778 56.1366 78.5306 56.1112 79.5833 56.0865C79.3847 47.6634 80.2265 30.7871 80.2265 30.7871Z" fill="black"/>
<path d="M77.1509 30.8594C76.1255 30.8835 75.1002 30.9082 74.0748 30.9323C74.0748 30.9323 73.0676 47.8124 73.2662 56.2356C74.3196 56.2109 75.3723 56.1861 76.425 56.1614C76.2265 47.7376 77.1509 30.8594 77.1509 30.8594Z" fill="black"/>
<path d="M74.0751 30.9316C74.0751 30.9316 73.0497 30.9557 70.9989 31.0039C70.9989 31.0039 69.9091 47.886 70.1083 56.3098C72.2138 56.2603 73.2665 56.2349 73.2665 56.2349C73.068 47.8118 74.0751 30.9316 74.0751 30.9316Z" fill="black"/>
<path d="M82.7415 56.0117C80.6361 56.0619 79.5827 56.0866 79.5827 56.0866C79.5709 56.5833 79.5586 57.0794 79.5469 57.5762C79.5469 57.5762 80.5996 57.612 82.7044 57.6842C82.7168 57.127 82.7292 56.5697 82.7415 56.0117Z" fill="black"/>
<path d="M79.584 56.0859C78.5313 56.1107 77.4785 56.1361 76.4251 56.1608C76.4134 56.5957 76.4023 57.0313 76.3906 57.4668C77.4427 57.5033 78.4954 57.5391 79.5482 57.5755C79.5599 57.0788 79.5723 56.5827 79.584 56.0859Z" fill="black"/>
<path d="M76.4251 56.1611C75.3724 56.1859 74.3197 56.2106 73.2663 56.2354C73.2552 56.6097 73.2441 56.9841 73.2324 57.359C74.2852 57.3949 75.3379 57.4313 76.3906 57.4671C76.4024 57.0316 76.4134 56.596 76.4251 56.1611Z" fill="black"/>
<path d="M73.2656 56.2354C73.2656 56.2354 72.2129 56.2607 70.1074 56.3102C70.0964 56.6234 70.0853 56.9372 70.0742 57.2503C72.179 57.3226 73.2318 57.359 73.2318 57.359C73.2435 56.984 73.2546 56.6097 73.2656 56.2354Z" fill="black"/>
</g>
</g>
</mask>
<g mask="url(#mask11_11_1550)">
<path d="M83.3018 30.7139C81.251 30.762 80.2263 30.7868 80.2263 30.7868C80.2263 30.7868 79.3845 47.663 79.5831 56.0862C79.5831 56.0862 80.6364 56.0615 82.7419 56.0113C82.5433 47.5882 83.3018 30.7139 83.3018 30.7139Z" fill="#FDDC04"/>
<path d="M80.2265 30.7871C79.2011 30.8112 78.1757 30.8353 77.1503 30.8594C77.1503 30.8594 76.2259 47.7376 76.4244 56.1614C77.4778 56.1366 78.5306 56.1112 79.5833 56.0865C79.3847 47.6634 80.2265 30.7871 80.2265 30.7871Z" fill="#FDDC04"/>
<path d="M77.1509 30.8594C76.1255 30.8835 75.1002 30.9082 74.0748 30.9323C74.0748 30.9323 73.0676 47.8124 73.2662 56.2356C74.3196 56.2109 75.3723 56.1861 76.425 56.1614C76.2265 47.7376 77.1509 30.8594 77.1509 30.8594Z" fill="#FDDC04"/>
<path d="M74.0751 30.9316C74.0751 30.9316 73.0497 30.9557 70.9989 31.0039C70.9989 31.0039 69.9091 47.886 70.1083 56.3098C72.2138 56.2603 73.2665 56.2349 73.2665 56.2349C73.068 47.8118 74.0751 30.9316 74.0751 30.9316Z" fill="#FDDC04"/>
<path d="M82.7415 56.0117C80.6361 56.0619 79.5827 56.0866 79.5827 56.0866C79.5709 56.5833 79.5586 57.0794 79.5469 57.5762C79.5469 57.5762 80.5996 57.612 82.7044 57.6842C82.7168 57.127 82.7292 56.5697 82.7415 56.0117Z" fill="#FDDC04"/>
<path d="M79.584 56.0859C78.5313 56.1107 77.4785 56.1361 76.4251 56.1608C76.4134 56.5957 76.4023 57.0313 76.3906 57.4668C77.4427 57.5033 78.4954 57.5391 79.5482 57.5755C79.5599 57.0788 79.5723 56.5827 79.584 56.0859Z" fill="#FDDC04"/>
<path d="M76.4251 56.1611C75.3724 56.1859 74.3197 56.2106 73.2663 56.2354C73.2552 56.6097 73.2441 56.9841 73.2324 57.359C74.2852 57.3949 75.3379 57.4313 76.3906 57.4671C76.4024 57.0316 76.4134 56.596 76.4251 56.1611Z" fill="#FDDC04"/>
<path d="M73.2656 56.2354C73.2656 56.2354 72.2129 56.2607 70.1074 56.3102C70.0964 56.6234 70.0853 56.9372 70.0742 57.2503C72.179 57.3226 73.2318 57.359 73.2318 57.359C73.2435 56.984 73.2546 56.6097 73.2656 56.2354Z" fill="#FDDC04"/>
</g>
</g>
<mask id="mask14_11_1550" style="mask-type:luminance" maskUnits="userSpaceOnUse" x="25" y="28" width="58" height="51">
<path d="M53.9768 28.0721C53.9315 28.0721 53.8861 28.0734 53.8395 28.0734C53.7195 28.0747 53.5981 28.0761 53.4781 28.0801C53.4675 28.0801 53.4541 28.0814 53.4435 28.0814C52.2435 28.1814 51.0315 28.1934 49.8421 28.4147C43.0088 29.3814 36.6315 33.0307 32.2381 38.3001C28.8688 42.2801 26.6555 47.2374 25.8555 52.3974C29.8008 52.0774 32.3928 55.0067 32.6768 58.4481C33.1475 64.1401 35.8048 69.3054 40.1621 72.9987C44.5195 76.6907 50.0621 78.4787 55.7461 78.0081C57.3808 77.8721 58.9835 77.5934 60.5101 77.1067C64.2941 75.9041 67.7501 73.7027 70.3808 70.5987C72.4555 68.1494 74.0795 65.5961 74.8848 62.5841C75.4688 62.7094 75.8795 62.7747 76.5088 62.7654C79.9981 62.6841 82.6728 59.5041 82.5915 56.0147C80.5875 56.0627 79.5848 56.0854 79.5848 56.0854C78.5328 56.1107 77.4795 56.1361 76.4261 56.1614C75.3728 56.1854 74.3208 56.2107 73.2675 56.2347C73.2675 56.2347 72.2141 56.2601 70.1088 56.3094C70.0861 56.9374 70.0755 57.2494 70.0755 57.2494C69.9555 61.2774 68.2381 65.1934 65.3568 68.0307C62.4915 70.8854 58.5715 72.5561 54.5221 72.6587H54.5035C50.2995 72.7641 46.1488 71.1574 43.1088 68.2481C40.0595 65.3481 38.2581 61.2787 38.1648 57.0747V57.0547C38.0941 53.1894 39.4288 49.3827 41.9155 46.4321C44.3821 43.4761 47.9221 41.4347 51.7288 40.9121C52.3888 40.7707 53.0781 40.8041 53.7501 40.7161H53.7675C57.8181 40.6254 61.8101 42.1107 64.8088 44.8267C67.8208 47.5241 69.7221 51.3547 70.0315 55.3721C70.0315 55.3721 70.0568 55.6841 70.1088 56.3094C72.2141 56.2601 73.2675 56.2347 73.2675 56.2347C74.3208 56.2107 75.3728 56.1854 76.4261 56.1614C77.4795 56.1361 78.5328 56.1107 79.5848 56.0854C79.5848 56.0854 80.5875 56.0627 82.5915 56.0147C82.5915 56.0134 82.5915 56.0121 82.5915 56.0107C82.4115 48.3694 79.2661 41.2561 73.7355 35.9801C68.3661 30.8587 61.3915 28.0734 53.9821 28.0721C53.9795 28.0721 53.9781 28.0721 53.9768 28.0721Z" fill="white"/>
</mask>
<g mask="url(#mask14_11_1550)">
<mask id="mask15_11_1550" style="mask-type:luminance" maskUnits="userSpaceOnUse" x="25" y="28" width="58" height="58">
<mask id="mask16_11_1550" style="mask-type:luminance" maskUnits="userSpaceOnUse" x="25" y="27" width="58" height="59">
<path d="M25.3691 27.8944H82.7434V85.3984H25.3691V27.8944Z" fill="white"/>
</mask>
<g mask="url(#mask16_11_1550)">
<mask id="mask17_11_1550" style="mask-type:luminance" maskUnits="userSpaceOnUse" x="25" y="27" width="58" height="59">
<path d="M25.3691 27.8944H82.7438V85.3984H25.3691V27.8944Z" fill="white"/>
</mask>
<g mask="url(#mask17_11_1550)">
<path d="M82.7435 56.0107C80.638 56.0609 79.5846 56.0856 79.5846 56.0856C79.5606 57.0784 79.5488 57.5752 79.5488 57.5752C79.5488 57.5752 80.6016 57.611 82.7064 57.6833C82.7064 57.6833 82.7188 57.126 82.7435 56.0107Z" fill="black"/>
<path d="M79.584 56.085C78.5313 56.1097 77.4785 56.1351 76.4251 56.1598C76.4023 57.0303 76.3906 57.4658 76.3906 57.4658C77.4427 57.5023 78.4954 57.5381 79.5482 57.5745C79.5482 57.5745 79.5599 57.0778 79.584 56.085Z" fill="black"/>
<path d="M76.4251 56.1602C75.3724 56.1849 74.3197 56.2097 73.2663 56.2344C73.2441 56.9831 73.2324 57.3581 73.2324 57.3581C74.2852 57.3939 75.3379 57.4304 76.3906 57.4662C76.3906 57.4662 76.4024 57.0306 76.4251 56.1602Z" fill="black"/>
<path d="M73.2676 56.2344C73.2676 56.2344 72.2148 56.2598 70.1094 56.3092C70.0872 56.9362 70.0762 57.2494 70.0762 57.2494C72.181 57.3216 73.2337 57.3581 73.2337 57.3581C73.2337 57.3581 73.2455 56.9831 73.2676 56.2344Z" fill="black"/>
<path d="M82.7064 57.6833C80.6016 57.611 79.5488 57.5752 79.5488 57.5752C79.4557 60.7803 78.7174 63.9567 77.4316 66.8929C77.5325 66.9951 78.6322 67.4789 80.3249 68.1618C81.7715 64.8591 82.6022 61.2861 82.7064 57.6833Z" fill="#030303"/>
<path d="M80.3242 68.1615C78.6315 67.4785 77.5319 66.9948 77.431 66.8926C76.1445 69.8288 74.3099 72.5241 72.0234 74.7676C72.2253 74.972 72.9661 75.7201 74.2461 77.0137C76.8145 74.4948 78.877 71.4635 80.3242 68.1615Z" fill="#0B0B0B"/>
<path d="M74.2461 77.0137C72.9662 75.7201 72.2253 74.972 72.0235 74.7676C67.4915 79.2988 61.1628 81.9929 54.752 82.1341C54.752 82.1341 54.7773 83.1875 54.8281 85.293C62.0267 85.138 69.1589 82.1035 74.2461 77.0137Z" fill="#202020"/>
<path d="M79.5495 57.5745C78.4967 57.5381 77.444 57.5023 76.3919 57.4658C76.3099 60.2738 75.6647 63.0537 74.5391 65.6234C75.4355 66.016 76.5352 66.4997 77.4323 66.8923C78.7181 63.9561 79.4564 60.7796 79.5495 57.5745Z" fill="#030303"/>
<path d="M77.431 66.8929C76.5339 66.5003 75.4342 66.0166 74.5378 65.624C73.4121 68.1937 71.8053 70.5537 69.8008 72.5218C70.5417 73.2705 71.2826 74.0192 72.0234 74.7679C74.3099 72.5244 76.1445 69.8291 77.431 66.8929Z" fill="#0B0B0B"/>
<path d="M72.0241 74.7676C71.2832 74.0189 70.5423 73.2702 69.8014 72.5215C65.8249 76.4941 60.2995 78.847 54.6758 78.9759C54.7012 80.0287 54.7272 81.0814 54.7526 82.1341C61.1634 81.9929 67.4922 79.2988 72.0241 74.7676Z" fill="#202020"/>
<path d="M76.3906 57.4665C75.3379 57.4307 74.2852 57.3942 73.2324 57.3584C73.1621 59.7692 72.6094 62.152 71.6445 64.3552C72.541 64.7477 73.6406 65.2315 74.5378 65.624C75.6634 63.0544 76.3086 60.2744 76.3906 57.4665Z" fill="#030303"/>
<path d="M74.5391 65.6234C73.6419 65.2308 72.5423 64.7471 71.6458 64.3545C70.6803 66.5583 69.3027 68.5824 67.5801 70.2757C68.321 71.0244 69.0612 71.7731 69.8021 72.5212C71.8066 70.5531 73.4134 68.193 74.5391 65.6234Z" fill="#0B0B0B"/>
<path d="M69.8014 72.5218C69.0606 71.7738 68.3203 71.0251 67.5794 70.2764C64.1576 73.6898 59.4356 75.7015 54.5996 75.8174C54.625 76.8701 54.6504 77.9229 54.6758 78.9763C60.2995 78.8473 65.8249 76.4945 69.8014 72.5218Z" fill="#202020"/>
<path d="M73.2331 57.3584C73.2331 57.3584 72.9701 57.3493 72.444 57.3311C72.4115 58.4372 72.2441 59.5602 71.9629 60.6709C72.4824 60.8096 72.7591 60.9183 72.7747 60.9346C73.0423 59.7621 73.1979 58.5635 73.2331 57.3584Z" fill="#030303"/>
<path d="M72.7741 60.9346C72.7585 60.9183 72.4818 60.8096 71.9622 60.6709C71.681 61.7822 71.2852 62.8812 70.7949 63.9385C71.2936 64.1579 71.5937 64.3044 71.6445 64.3552C72.127 63.2536 72.5065 62.1071 72.7741 60.9346Z" fill="#050505"/>
<path d="M71.6458 64.3551C71.5951 64.3044 71.2949 64.1579 70.7962 63.9385C69.8151 66.0544 68.4544 68.0055 66.873 69.5615C67.2435 69.9359 67.4792 70.1742 67.5801 70.2764C69.3027 68.583 70.6803 66.5589 71.6458 64.3551Z" fill="#0B0B0B"/>
<path d="M72.444 57.3304C71.9173 57.3122 71.1276 57.2848 70.0755 57.249C70.0456 58.2562 69.916 59.2555 69.6934 60.2334C70.681 60.3649 71.444 60.5322 71.9629 60.6703C72.2441 59.5596 72.4115 58.4365 72.444 57.3304Z" fill="#030303"/>
<path d="M71.9629 60.6702C71.444 60.5322 70.681 60.3649 69.6934 60.2334C69.4701 61.2113 69.1543 62.1676 68.752 63.0856C69.5983 63.4274 70.2962 63.7191 70.7956 63.9378C71.2858 62.8805 71.6816 61.7816 71.9629 60.6702Z" fill="#060606"/>
<path d="M70.7962 63.9382C70.2969 63.7194 69.599 63.4277 68.7526 63.0859C67.9479 64.9232 66.7982 66.612 65.3574 68.03C65.9974 68.6764 66.5026 69.1869 66.873 69.5612C68.4544 68.0052 69.8151 66.054 70.7962 63.9382Z" fill="#0E0E0E"/>
<path d="M67.5788 70.2764C67.4779 70.1742 67.2422 69.9359 66.8718 69.5615C65.2995 71.1286 63.3372 72.4678 61.2129 73.4287C61.4258 73.9307 61.569 74.2328 61.6191 74.2835C63.832 73.3395 65.8678 71.9827 67.5788 70.2764Z" fill="#202020"/>
<path d="M61.6198 74.2835C61.5697 74.2327 61.4264 73.9307 61.2135 73.4287C59.0885 74.3903 56.8014 74.973 54.5801 75.0277C54.5931 75.5537 54.5996 75.8174 54.5996 75.8174C57.0176 75.7594 59.4069 75.2275 61.6198 74.2835Z" fill="#3B3B3B"/>
<path d="M66.8718 69.5615C66.5013 69.1872 65.9961 68.6768 65.3561 68.0303C63.9225 69.458 62.2266 70.5895 60.3828 71.3766C60.7155 72.2262 60.9993 72.9274 61.2129 73.4287C63.3372 72.4678 65.2995 71.1286 66.8718 69.5615Z" fill="#272727"/>
<path d="M61.2142 73.4281C61.0007 72.9268 60.7168 72.2256 60.3841 71.376C59.4616 71.7699 58.5026 72.0772 57.5215 72.2926C57.6432 73.2822 57.8014 74.0466 57.9336 74.5674C59.0488 74.2946 60.1517 73.9092 61.2142 73.4281Z" fill="#434343"/>
<path d="M57.9336 74.5677C57.8014 74.0469 57.6432 73.2826 57.5215 72.293C56.5397 72.5091 55.5358 72.6322 54.5234 72.6582C54.5488 73.7109 54.5684 74.5007 54.5807 75.0273C55.6914 75 56.819 74.8405 57.9336 74.5677Z" fill="#4F4F4F"/>
<path d="M54.6751 78.9762C54.6497 77.9229 54.6243 76.8701 54.599 75.8174C54.5911 75.8174 54.5833 75.8174 54.5762 75.8174C54.6003 76.8708 54.6243 77.9235 54.6484 78.9762C54.6575 78.9762 54.6667 78.9762 54.6751 78.9762Z" fill="#575757"/>
<path d="M54.5996 75.8171C54.5996 75.8171 54.5742 74.7637 54.5228 72.6582H54.5039C54.5521 74.7643 54.5768 75.8171 54.5768 75.8171C54.584 75.8171 54.5918 75.8171 54.5996 75.8171Z" fill="#575757"/>
<path d="M43.8053 83.3656C44.4017 81.6624 44.8399 80.5316 44.946 80.4203C41.8392 79.2178 38.9648 77.415 36.5658 75.1064C36.3529 75.3291 35.6263 76.0915 34.3848 77.3929C37.0775 79.986 40.3106 82.0134 43.8053 83.3656Z" fill="#707070"/>
<path d="M34.3861 77.3932C35.6276 76.0918 36.3542 75.3294 36.5671 75.1068C34.1478 72.819 32.2116 70.0332 30.8633 66.9863C30.7572 67.0977 29.6484 67.5892 27.9746 68.265C29.4909 71.6921 31.6686 74.8262 34.3861 77.3932Z" fill="#838383"/>
<path d="M27.974 68.265C29.6478 67.5892 30.7565 67.0977 30.8626 66.9863C29.5143 63.9401 28.7546 60.6328 28.6882 57.3027C28.6882 57.3027 27.6354 57.3288 25.5293 57.3796C25.6029 61.1185 26.4577 64.8386 27.974 68.265Z" fill="#979797"/>
<path d="M54.7227 82.1354C54.6986 81.082 54.6745 80.0293 54.6497 78.9759C51.7298 79.0547 48.8073 78.5273 46.0885 77.4746C45.737 78.3822 45.2988 79.513 44.9473 80.4206C48.054 81.6231 51.3932 82.2259 54.7227 82.1354Z" fill="#585858"/>
<path d="M44.9466 80.4206C45.2982 79.513 45.7363 78.3822 46.0879 77.4746C43.3691 76.4225 40.8535 74.8444 38.7467 72.8203C38.0202 73.5827 37.293 74.3444 36.5664 75.1068C38.9655 77.4154 41.8398 79.2181 44.9466 80.4206Z" fill="#707070"/>
<path d="M36.5671 75.1071C37.2936 74.3447 38.0208 73.583 38.7474 72.8207C36.627 70.8122 34.9316 68.374 33.752 65.708C32.862 66.1019 31.7533 66.5928 30.8633 66.9867C32.2116 70.0335 34.1478 72.8194 36.5671 75.1071Z" fill="#838383"/>
<path d="M30.862 66.9863C31.752 66.5925 32.8607 66.1016 33.7507 65.7077C32.571 63.0417 31.9063 60.1471 31.8464 57.2266C30.7936 57.2519 29.7409 57.2773 28.6875 57.3027C28.7539 60.6328 29.5137 63.9401 30.862 66.9863Z" fill="#979797"/>
<path d="M54.6491 78.9759C54.625 77.9232 54.6009 76.8704 54.5768 75.8171C52.0651 75.8828 49.5599 75.4316 47.2285 74.5293C46.8776 75.4369 46.4395 76.5671 46.0879 77.4746C48.8066 78.5274 51.7292 79.0547 54.6491 78.9759Z" fill="#585858"/>
<path d="M46.0872 77.4749C46.4388 76.5674 46.877 75.4372 47.2279 74.5296C44.8971 73.6273 42.7409 72.2738 40.9271 70.5342C40.2005 71.2966 39.4733 72.0583 38.7461 72.8206C40.8529 74.8447 43.3685 76.4229 46.0872 77.4749Z" fill="#707070"/>
<path d="M38.7474 72.82C39.4746 72.0576 40.2018 71.2959 40.9284 70.5335C39.1055 68.8044 37.6517 66.7145 36.64 64.4287C35.7507 64.8226 34.6419 65.3135 33.752 65.7074C34.9316 68.3734 36.627 70.8115 38.7474 72.82Z" fill="#838383"/>
<path d="M33.752 65.7074C34.6419 65.3135 35.7507 64.8226 36.64 64.4287C35.6289 62.1429 35.0599 59.6611 35.0065 57.1494C33.9538 57.1755 32.9004 57.2008 31.8477 57.2262C31.9075 60.1468 32.5723 63.0414 33.752 65.7074Z" fill="#979797"/>
<path d="M54.5768 75.8167C54.5768 75.8167 54.5703 75.5537 54.5586 75.027C52.2513 75.0863 49.8535 74.5765 47.6152 73.6533C47.418 74.1624 47.2819 74.473 47.2285 74.529C49.5599 75.4313 52.0651 75.8825 54.5768 75.8167Z" fill="#585858"/>
<path d="M47.2285 74.5293C47.2819 74.4733 47.418 74.1628 47.6152 73.6537C45.3776 72.7298 43.2995 71.3919 41.6328 69.7949C41.2689 70.1764 41.0345 70.4225 40.9277 70.5339C42.7415 72.2734 44.8978 73.627 47.2285 74.5293Z" fill="#707070"/>
<path d="M54.5579 75.027C54.5455 74.501 54.5273 73.7113 54.5033 72.6579C53.4518 72.6846 52.4043 72.6038 51.3763 72.4229C51.3001 73.4124 51.1725 74.182 51.0605 74.7087C52.2279 74.9443 53.4043 75.057 54.5579 75.027Z" fill="#585858"/>
<path d="M51.0612 74.7087C51.1732 74.182 51.3008 73.4124 51.377 72.4229C50.349 72.2412 49.3411 71.9593 48.3698 71.583C48.0716 72.4352 47.8132 73.1436 47.6152 73.6533C48.7344 74.1149 49.8932 74.473 51.0612 74.7087Z" fill="#606060"/>
<path d="M47.6152 73.6533C47.8132 73.1436 48.0716 72.4352 48.3698 71.583C46.4264 70.8311 44.6289 69.7015 43.1087 68.2471C42.4883 68.8981 41.9961 69.4137 41.6328 69.7946C43.2995 71.3916 45.3776 72.7295 47.6152 73.6533Z" fill="#6A6A6A"/>
<path d="M40.9271 70.5335C41.0339 70.4222 41.2682 70.1761 41.6322 69.7946C39.9583 68.2054 38.5241 66.193 37.4954 64.001C36.9961 64.2223 36.6921 64.3727 36.6387 64.4287C37.6504 66.7145 39.1042 68.8044 40.9271 70.5335Z" fill="#838383"/>
<path d="M36.6393 64.4291C36.6927 64.3731 36.9967 64.2227 37.4961 64.0013C36.4681 61.8093 35.8457 59.4382 35.7956 57.1309C35.2689 57.1439 35.0059 57.1497 35.0059 57.1497C35.0592 59.6615 35.6283 62.1432 36.6393 64.4291Z" fill="#979797"/>
<path d="M41.6328 69.7946C41.9961 69.4138 42.4883 68.8981 43.1087 68.2471C41.584 66.7972 40.3711 65.055 39.528 63.1494C38.6914 63.488 37.9961 63.7796 37.4961 64.001C38.5247 66.193 39.959 68.2054 41.6328 69.7946Z" fill="#838383"/>
<path d="M37.4967 64.0013C37.9967 63.78 38.6921 63.4883 39.5287 63.1497C39.1074 62.1973 38.778 61.2038 38.5482 60.1855C37.5632 60.3086 36.8001 60.472 36.2793 60.6094C36.5697 61.7643 36.9824 62.905 37.4967 64.0013Z" fill="#9C9C9C"/>
<path d="M36.278 60.6091C36.7988 60.4717 37.5619 60.3083 38.5469 60.1852C38.3171 59.167 38.1875 58.1247 38.1641 57.0732C37.1113 57.0986 36.3216 57.1175 35.7949 57.1305C35.8197 58.2842 35.9876 59.4535 36.278 60.6091Z" fill="#A7A7A7"/>
<path d="M25.5299 57.3792C27.6361 57.3285 28.6888 57.3024 28.6888 57.3024C28.6888 57.2927 28.6882 57.2822 28.6882 57.2725C28.6882 57.2725 27.6354 57.2966 25.5293 57.3454C25.5299 57.3564 25.5299 57.3675 25.5299 57.3792Z" fill="#AFAFAF"/>
<path d="M28.6882 57.3031C29.7415 57.2777 30.7943 57.2523 31.847 57.2269C31.847 57.2178 31.8464 57.2093 31.8464 57.2002C30.7936 57.2243 29.7402 57.249 28.6875 57.2731C28.6875 57.2828 28.6882 57.2933 28.6882 57.3031Z" fill="#AFAFAF"/>
<path d="M31.8464 57.2266C32.8991 57.2012 33.9525 57.1758 35.0052 57.1497C35.0052 57.1425 35.0046 57.1348 35.0046 57.127C33.9518 57.1517 32.8984 57.1758 31.8457 57.1999C31.8457 57.2089 31.8464 57.2174 31.8464 57.2266Z" fill="#AFAFAF"/>
<path d="M35.0065 57.1497C35.0065 57.1497 36.0592 57.1244 38.1654 57.0736L38.1647 57.0547C36.0586 57.1029 35.0059 57.127 35.0059 57.127C35.0059 57.1348 35.0065 57.1426 35.0065 57.1497Z" fill="#AFAFAF"/>
<path d="M25.5289 57.3454C27.635 57.2966 28.6877 57.2725 28.6877 57.2725C28.551 51.1559 30.7066 45.0023 34.6578 40.3324C34.4573 40.1631 33.6506 39.486 32.2385 38.2998C27.7984 43.542 25.3694 50.4776 25.5289 57.3454Z" fill="#AFAFAF"/>
<path d="M32.2383 38.3001C33.6504 39.4863 34.457 40.1634 34.6576 40.3327C36.6133 37.987 39.0078 36.0026 41.6738 34.4974C41.5729 34.4128 40.9876 33.3783 40.125 31.7441C37.127 33.4356 34.4349 35.6654 32.2383 38.3001Z" fill="#E3E3E3"/>
<path d="M40.125 31.7441C40.9876 33.3783 41.5729 34.4128 41.6738 34.4974C44.3392 32.9922 47.2754 31.9662 50.3138 31.5384C50.3138 31.5384 50.1563 30.4967 49.8418 28.4141C46.4258 28.8978 43.1224 30.0521 40.125 31.7441Z" fill="#F7F7F7"/>
<path d="M28.6878 57.2731C29.7405 57.2491 30.7939 57.2243 31.8466 57.2002C31.7327 51.8343 33.6142 46.4626 37.0771 42.3656C36.2711 41.6878 35.4645 41.0107 34.6578 40.333C30.7067 45.0029 28.5511 51.1566 28.6878 57.2731Z" fill="#AFAFAF"/>
<path d="M34.6582 40.3324C35.4648 41.0101 36.2715 41.6872 37.0775 42.3649C38.7923 40.3089 40.89 38.5693 43.2233 37.251C42.7415 36.3916 42.1563 35.3564 41.6745 34.4971C39.0085 36.0023 36.6139 37.9867 34.6582 40.3324Z" fill="#E3E3E3"/>
<path d="M41.6738 34.4971C42.1556 35.3565 42.7409 36.3916 43.2227 37.251C45.556 35.9326 48.1257 35.0348 50.7852 34.6624C50.6283 33.6208 50.4707 32.5791 50.3138 31.5381C47.2754 31.9658 44.3392 32.9919 41.6738 34.4971Z" fill="#F7F7F7"/>
<path d="M31.8467 57.1999C32.8994 57.1758 33.9528 57.1517 35.0055 57.127C34.9137 52.5117 36.5218 47.9225 39.4964 44.3978C38.6904 43.7201 37.8838 43.043 37.0772 42.3652C33.6143 46.4622 31.7328 51.834 31.8467 57.1999Z" fill="#AFAFAF"/>
<path d="M37.0762 42.3649C37.8828 43.0427 38.6895 43.7197 39.4954 44.3975C40.9694 42.6305 42.7695 41.1364 44.7708 40.0042C44.2891 39.1449 43.7038 38.1104 43.222 37.251C40.8887 38.5693 38.791 40.3089 37.0762 42.3649Z" fill="#E3E3E3"/>
<path d="M43.2227 37.2516C43.7044 38.111 44.2897 39.1455 44.7715 40.0049C46.7728 38.8734 48.9759 38.1038 51.2572 37.7868C51.0996 36.7458 50.9427 35.7041 50.7852 34.6631C48.1257 35.0355 45.556 35.9333 43.2227 37.2516Z" fill="#F7F7F7"/>
<path d="M35.0056 57.127C35.0056 57.127 35.2687 57.1211 35.7953 57.1087C35.755 54.9889 36.1866 52.7793 36.9698 50.6953C36.4568 50.515 36.1515 50.3958 36.1013 50.3535C35.339 52.5182 34.9601 54.8197 35.0056 57.127Z" fill="#AFAFAF"/>
<path d="M36.1016 50.3532C36.1517 50.3955 36.457 50.5147 36.9701 50.695C37.7533 48.6104 38.8874 46.6514 40.2526 45.0322C39.849 44.6937 39.5977 44.4821 39.4967 44.3975C38.0098 46.1598 36.8639 48.1885 36.1016 50.3532Z" fill="#C9C9C9"/>
<path d="M35.7956 57.1087C36.3223 57.097 37.112 57.0788 38.1647 57.0547C38.1478 56.0879 38.2181 55.1257 38.3724 54.179C37.3737 54.1068 36.6009 53.9902 36.0742 53.8887C35.8737 54.9668 35.7754 56.0488 35.7956 57.1087Z" fill="#AFAFAF"/>
<path d="M36.0742 53.8887C36.6009 53.9902 37.3737 54.1068 38.3724 54.179C38.5267 53.2324 38.7643 52.3021 39.082 51.3997C38.2031 51.1159 37.4831 50.875 36.9701 50.6953C36.5788 51.737 36.2747 52.8106 36.0742 53.8887Z" fill="#B7B7B7"/>
<path d="M36.9688 50.695C37.4818 50.8747 38.2018 51.1156 39.0807 51.3994C39.7168 49.596 40.6719 47.9059 41.9147 46.43C41.209 45.8369 40.6543 45.3714 40.2513 45.0322C38.8861 46.6514 37.752 48.6104 36.9688 50.695Z" fill="#C2C2C2"/>
<path d="M39.4961 44.3981C39.597 44.4828 39.8483 44.6943 40.252 45.0329C41.6055 43.4111 43.3405 41.9391 45.2598 40.8011C44.9928 40.3271 44.8216 40.0472 44.7715 40.0049C42.7702 41.137 40.9701 42.6312 39.4961 44.3981Z" fill="#E3E3E3"/>
<path d="M44.7715 40.0049C44.8216 40.0472 44.9928 40.3271 45.2598 40.8011C46.2194 40.2314 47.2253 39.7458 48.2526 39.3662C48.0606 38.8649 47.9251 38.6038 47.9095 38.5908C46.8229 38.9639 45.7721 39.4391 44.7715 40.0049Z" fill="#F7F7F7"/>
<path d="M47.9102 38.5902C47.9258 38.6032 48.0612 38.8643 48.2533 39.3656C49.2806 38.986 50.3294 38.7119 51.3757 38.5674C51.2969 38.0466 51.2578 37.7861 51.2578 37.7861C50.1172 37.945 48.9961 38.2165 47.9102 38.5902Z" fill="#FDFDFD"/>
<path d="M40.252 45.0326C40.6549 45.3718 41.2096 45.8373 41.9154 46.4304C43.1491 44.9525 44.651 43.7038 46.3203 42.7585C45.8887 41.9414 45.5267 41.2741 45.2598 40.8008C43.3405 41.9388 41.6055 43.4108 40.252 45.0326Z" fill="#DDDDDD"/>
<path d="M45.2598 40.8011C45.5267 41.2744 45.8887 41.9417 46.3203 42.7588C47.155 42.2861 48.0313 41.8897 48.9369 41.5785C48.694 40.6071 48.4447 39.8669 48.2526 39.3662C47.2253 39.7458 46.2194 40.2314 45.2598 40.8011Z" fill="#F5F5F5"/>
<path d="M48.252 39.3656C48.444 39.8662 48.6934 40.6064 48.9362 41.5778C49.8418 41.2673 50.7767 41.0413 51.7279 40.9105C51.5703 39.8695 51.4525 39.0882 51.3743 38.5674C50.3281 38.7119 49.2793 38.986 48.252 39.3656Z" fill="#FCFCFC"/>
<path d="M49.8418 28.4141C50.1563 30.4967 50.3138 31.5384 50.3138 31.5384C51.3711 31.3372 52.4512 31.3366 53.5195 31.2389C53.5195 31.2389 53.4942 30.1862 53.4434 28.0801C52.2422 28.181 51.0319 28.1927 49.8418 28.4141Z" fill="white"/>
<path d="M50.3145 31.5387C50.4714 32.5798 50.6289 33.6214 50.7858 34.6631C51.7109 34.4814 52.6608 34.4925 53.597 34.3981C53.5716 33.3447 53.5456 32.292 53.5202 31.2393C52.4518 31.3369 51.3718 31.3376 50.3145 31.5387Z" fill="white"/>
<path d="M50.7852 34.6624C50.9427 35.7035 51.0996 36.7451 51.2572 37.7861C52.0501 37.6253 52.8685 37.6475 53.6725 37.5563C53.6471 36.5029 53.6217 35.4502 53.5964 34.3975C52.6602 34.4919 51.7103 34.4808 50.7852 34.6624Z" fill="white"/>
<path d="M51.2578 37.7865C51.2578 37.7865 51.4147 38.8281 51.7292 40.9108C52.39 40.7702 53.0781 40.8034 53.75 40.7148C53.6986 38.6094 53.6732 37.5566 53.6732 37.5566C52.8691 37.6478 52.0508 37.6257 51.2578 37.7865Z" fill="white"/>
<path d="M53.4434 28.0798C53.4941 30.1859 53.5195 31.2386 53.5195 31.2386C53.5299 31.238 53.5397 31.238 53.5501 31.238C53.5501 31.238 53.526 30.1846 53.4772 28.0791C53.4661 28.0791 53.4544 28.0798 53.4434 28.0798Z" fill="white"/>
<path d="M53.5195 31.2389C53.5449 32.2917 53.571 33.3444 53.5964 34.3978C53.6048 34.3971 53.6139 34.3971 53.6231 34.3971C53.5983 33.3438 53.5742 32.291 53.5501 31.2383C53.5397 31.2383 53.5299 31.2383 53.5195 31.2389Z" fill="white"/>
<path d="M53.5957 34.3981C53.6211 35.4508 53.6465 36.5036 53.6719 37.557C53.6797 37.5563 53.6875 37.5563 53.6947 37.5563C53.6706 36.5029 53.6465 35.4502 53.6224 34.3975C53.6133 34.3975 53.6042 34.3975 53.5957 34.3981Z" fill="white"/>
<path d="M53.6719 37.5563C53.6719 37.5563 53.6973 38.609 53.7487 40.7145H53.7676C53.7194 38.6084 53.6947 37.5557 53.6947 37.5557C53.6875 37.5557 53.6797 37.5557 53.6719 37.5563Z" fill="white"/>
<path d="M53.4766 28.0793C53.5254 30.1848 53.5495 31.2382 53.5495 31.2382C59.9596 31.0767 66.4089 33.4686 71.1498 37.7811C71.3418 37.5676 72.0462 36.7844 73.2637 35.4328C67.9421 30.5884 60.6745 27.8938 53.4766 28.0793Z" fill="white"/>
<path d="M73.2643 35.4326C72.0469 36.7842 71.3424 37.5674 71.1504 37.7809C75.9297 42.0466 78.9896 48.2041 79.4785 54.5993C79.4785 54.5993 80.528 54.5134 82.6276 54.3415C82.0788 47.1546 78.6328 40.221 73.2643 35.4326Z" fill="white"/>
<path d="M53.5508 31.2381C53.5749 32.2909 53.599 33.3436 53.6237 34.397C59.2468 34.2596 64.877 36.3488 69.0371 40.1294C69.7416 39.3462 70.4466 38.5637 71.1511 37.7811C66.4102 33.4686 59.9609 31.0767 53.5508 31.2381Z" fill="white"/>
<path d="M71.151 37.7812C70.4466 38.5638 69.7415 39.3464 69.0371 40.1296C73.2272 43.8724 75.901 49.2546 76.3301 54.8568C77.3796 54.7709 78.4297 54.6856 79.4792 54.5996C78.9902 48.2044 75.9303 42.0469 71.151 37.7812Z" fill="white"/>
<path d="M53.623 34.397C53.6471 35.4497 53.6712 36.5025 53.6953 37.5559C58.5319 37.4426 63.3438 39.229 66.9225 42.4777C67.627 41.6945 68.332 40.912 69.0365 40.1294C64.8763 36.3488 59.2461 34.2596 53.623 34.397Z" fill="white"/>
<path d="M69.0358 40.1299C68.3314 40.9124 67.6263 41.695 66.9219 42.4782C70.5234 45.6983 72.8106 50.305 73.1797 55.1149C74.2292 55.029 75.2787 54.9431 76.3288 54.8571C75.8997 49.2549 73.2259 43.8727 69.0358 40.1299Z" fill="white"/>
<path d="M53.6953 37.5559C53.6953 37.5559 53.72 38.6086 53.7682 40.7147C57.8177 40.6255 61.8106 42.1093 64.8086 44.8261C66.0261 43.4738 66.7305 42.6913 66.9225 42.4777C63.3438 39.229 58.5319 37.4426 53.6953 37.5559Z" fill="white"/>
<path d="M66.9225 42.4775C66.7305 42.6911 66.026 43.4736 64.8086 44.8259C67.821 47.5231 69.722 51.3539 70.0313 55.3714C72.1302 55.1996 73.1803 55.1143 73.1803 55.1143C72.8112 50.3044 70.5241 45.6976 66.9225 42.4775Z" fill="white"/>
<path d="M82.6276 54.3418C80.528 54.5137 79.4785 54.5996 79.4785 54.5996C79.4785 54.5996 79.5137 55.0951 79.5846 56.0853C79.5846 56.0853 80.638 56.0605 82.7435 56.0104C82.6667 54.8984 82.6276 54.3418 82.6276 54.3418Z" fill="white"/>
<path d="M79.4792 54.5996C78.4297 54.6855 77.3796 54.7708 76.3301 54.8568C76.3301 54.8568 76.362 55.291 76.4264 56.1602C77.4798 56.1354 78.5326 56.11 79.5853 56.0853C79.5143 55.0951 79.4792 54.5996 79.4792 54.5996Z" fill="white"/>
<path d="M76.3288 54.8564C75.2787 54.9424 74.2292 55.0283 73.1797 55.1143C73.1797 55.1143 73.2083 55.4873 73.2663 56.2341C74.3197 56.2093 75.3724 56.1846 76.4251 56.1598C76.3607 55.2907 76.3288 54.8564 76.3288 54.8564Z" fill="white"/>
<path d="M73.1803 55.1143C73.1803 55.1143 72.1302 55.1995 70.0312 55.3714C70.0312 55.3714 70.0566 55.6839 70.1087 56.3089C72.2142 56.2594 73.2669 56.2341 73.2669 56.2341C73.209 55.4873 73.1803 55.1143 73.1803 55.1143Z" fill="white"/>
</g>
</g>
</mask>
<g mask="url(#mask15_11_1550)">
<path d="M82.7435 56.0117C80.638 56.0619 79.5846 56.0866 79.5846 56.0866C79.5605 57.0794 79.5488 57.5762 79.5488 57.5762C79.5488 57.5762 80.6016 57.612 82.7064 57.6842C82.7064 57.6842 82.7188 57.127 82.7435 56.0117Z" fill="#FDDC04"/>
<path d="M79.584 56.0859C78.5312 56.1107 77.4785 56.1361 76.4251 56.1608C76.4023 57.0313 76.3906 57.4668 76.3906 57.4668C77.4427 57.5033 78.4954 57.5391 79.5482 57.5755C79.5482 57.5755 79.5599 57.0788 79.584 56.0859Z" fill="#FDDC04"/>
<path d="M76.4251 56.1611C75.3724 56.1859 74.3197 56.2106 73.2663 56.2354C73.2441 56.9841 73.2324 57.3591 73.2324 57.3591C74.2852 57.3949 75.3379 57.4313 76.3906 57.4671C76.3906 57.4671 76.4024 57.0316 76.4251 56.1611Z" fill="#FDDC04"/>
<path d="M73.2676 56.2354C73.2676 56.2354 72.2148 56.2607 70.1094 56.3102C70.0872 56.9372 70.0762 57.2503 70.0762 57.2503C72.181 57.3226 73.2337 57.3591 73.2337 57.3591C73.2337 57.3591 73.2454 56.9841 73.2676 56.2354Z" fill="#FDDC04"/>
<path d="M82.7057 57.6842C80.6009 57.612 79.5482 57.5762 79.5482 57.5762C79.362 63.987 76.5963 70.2819 72.0234 74.7689C72.2253 74.9733 72.9661 75.7214 74.2461 77.015C79.3828 71.9779 82.4974 64.8893 82.7057 57.6842Z" fill="#FDDC04"/>
<path d="M74.246 77.0147C72.9661 75.721 72.2252 74.973 72.0234 74.7686C67.4915 79.2998 61.1627 81.9938 54.752 82.1351C54.752 82.1351 54.7773 83.1885 54.8281 85.294C62.0267 85.139 69.1588 82.1045 74.246 77.0147Z" fill="#FDDC04"/>
<path d="M79.5482 57.5755C78.4954 57.5391 77.4427 57.5033 76.3906 57.4668C76.2265 63.0833 73.8099 68.5853 69.8008 72.5222C70.5417 73.2709 71.2825 74.0196 72.0234 74.7683C76.5963 70.2813 79.362 63.9863 79.5482 57.5755Z" fill="#FDDC04"/>
<path d="M72.024 74.7686C71.2832 74.0199 70.5423 73.2712 69.8014 72.5225C65.8248 76.4951 60.2995 78.848 54.6758 78.9769C54.7012 80.0296 54.7272 81.0824 54.7526 82.1351C61.1634 81.9938 67.4922 79.2998 72.024 74.7686Z" fill="#FDDC04"/>
<path d="M76.3919 57.4674C75.3392 57.4316 74.2864 57.3952 73.2337 57.3594C73.0924 62.181 71.0254 66.8906 67.5801 70.2774C68.321 71.0261 69.0612 71.7748 69.8021 72.5228C73.8112 68.586 76.2278 63.084 76.3919 57.4674Z" fill="#FDDC04"/>
<path d="M69.8014 72.5228C69.0605 71.7747 68.3203 71.026 67.5794 70.2773C64.1575 73.6908 59.4355 75.7025 54.5996 75.8184C54.625 76.8711 54.6504 77.9238 54.6758 78.9772C60.2995 78.8483 65.8248 76.4955 69.8014 72.5228Z" fill="#FDDC04"/>
<path d="M73.2337 57.3587C73.2337 57.3587 72.181 57.3223 70.0762 57.25C69.957 61.2774 68.2389 65.194 65.3574 68.0306C66.6374 69.3236 67.3783 70.0723 67.5801 70.2767C71.0254 66.89 73.0924 62.1803 73.2337 57.3587Z" fill="#FDDC04"/>
<path d="M67.58 70.2773C67.3782 70.0729 66.6373 69.3242 65.3574 68.0312C62.4909 70.8861 58.5723 72.5566 54.5234 72.6595C54.5749 74.765 54.6003 75.8184 54.6003 75.8184C59.4362 75.7025 64.1582 73.6908 67.58 70.2773Z" fill="#FDDC04"/>
<path d="M54.6751 78.9772C54.6497 77.9238 54.6243 76.8711 54.599 75.8184C54.5911 75.8184 54.5833 75.8184 54.5762 75.8184C54.6003 76.8717 54.6243 77.9245 54.6484 78.9772C54.6575 78.9772 54.6667 78.9772 54.6751 78.9772Z" fill="#FDDC04"/>
<path d="M54.5996 75.818C54.5996 75.818 54.5742 74.7647 54.5228 72.6592H54.5039C54.5521 74.7653 54.5768 75.818 54.5768 75.818C54.584 75.818 54.5918 75.818 54.5996 75.818Z" fill="#FDDC04"/>
<path d="M54.7942 85.2949C54.7454 83.1888 54.7213 82.1361 54.7213 82.1361C48.0631 82.3177 41.3646 79.7246 36.5657 75.1074C36.3529 75.3301 35.6263 76.0924 34.3848 77.3939C39.7702 82.5801 47.3177 85.502 54.7942 85.2949Z" fill="#FDDC04"/>
<path d="M34.3854 77.3942C35.6269 76.0928 36.3535 75.3304 36.5664 75.1078C31.7278 70.5323 28.821 63.9639 28.6881 57.3037C28.6881 57.3037 27.6354 57.3298 25.5293 57.3805C25.6758 64.8584 28.9505 72.2601 34.3854 77.3942Z" fill="#FDDC04"/>
<path d="M54.722 82.1364C54.6979 81.083 54.6738 80.0303 54.649 78.9769C48.8086 79.1338 42.9596 76.8688 38.7467 72.8213C38.0202 73.5837 37.293 74.3454 36.5664 75.1078C41.3652 79.7249 48.0638 82.318 54.722 82.1364Z" fill="#FDDC04"/>
<path d="M36.5657 75.1078C37.2923 74.3454 38.0195 73.5837 38.7461 72.8213C34.5045 68.8044 31.9661 63.0687 31.8463 57.2275C30.7936 57.2529 29.7409 57.2783 28.6875 57.3037C28.8203 63.9639 31.7272 70.5323 36.5657 75.1078Z" fill="#FDDC04"/>
<path d="M54.6484 78.9772C54.6243 77.9245 54.6002 76.8718 54.5761 75.8184C49.5534 75.9499 44.554 74.0137 40.9271 70.5352C40.2005 71.2975 39.4733 72.0592 38.7461 72.8216C42.959 76.8692 48.8079 79.1341 54.6484 78.9772Z" fill="#FDDC04"/>
<path d="M38.7474 72.821C39.4746 72.0586 40.2018 71.2969 40.9284 70.5345C37.2825 67.0762 35.1126 62.1738 35.0065 57.1504C33.9538 57.1764 32.9004 57.2018 31.8477 57.2272C31.9674 63.0684 34.5059 68.8041 38.7474 72.821Z" fill="#FDDC04"/>
<path d="M54.5768 75.8177C54.5768 75.8177 54.5521 74.765 54.5039 72.6589C50.2995 72.7643 46.1491 71.1569 43.1087 68.248C41.8672 69.5495 41.1406 70.3119 40.9277 70.5345C44.5547 74.013 49.554 75.9492 54.5768 75.8177Z" fill="#FDDC04"/>
<path d="M40.9277 70.5345C41.1406 70.3119 41.8672 69.5495 43.1087 68.2481C40.0592 65.3483 38.2578 61.2793 38.1647 57.0742C36.0586 57.125 35.0059 57.1504 35.0059 57.1504C35.112 62.1738 37.2819 67.0762 40.9277 70.5345Z" fill="#FDDC04"/>
<path d="M25.5299 57.3802C27.6361 57.3294 28.6888 57.3034 28.6888 57.3034C28.6888 57.2937 28.6881 57.2832 28.6881 57.2734C28.6881 57.2734 27.6354 57.2975 25.5293 57.3464C25.5299 57.3574 25.5299 57.3685 25.5299 57.3802Z" fill="#FDDC04"/>
<path d="M28.6882 57.304C29.7415 57.2786 30.7943 57.2533 31.847 57.2279C31.847 57.2188 31.8463 57.2103 31.8463 57.2012C30.7936 57.2253 29.7402 57.25 28.6875 57.2741C28.6875 57.2838 28.6882 57.2943 28.6882 57.304Z" fill="#FDDC04"/>
<path d="M31.8464 57.2275C32.8991 57.2022 33.9525 57.1768 35.0052 57.1507C35.0052 57.1435 35.0045 57.1357 35.0045 57.1279C33.9518 57.1527 32.8984 57.1768 31.8457 57.2008C31.8457 57.2099 31.8464 57.2184 31.8464 57.2275Z" fill="#FDDC04"/>
<path d="M35.0065 57.1507C35.0065 57.1507 36.0592 57.1253 38.1654 57.0745L38.1647 57.0557C36.0586 57.1038 35.0059 57.1279 35.0059 57.1279C35.0059 57.1358 35.0065 57.1436 35.0065 57.1507Z" fill="#FDDC04"/>
<path d="M25.5289 57.3464C27.635 57.2976 28.6877 57.2735 28.6877 57.2735C28.551 51.1569 30.7066 45.0033 34.6578 40.3333C34.4572 40.1641 33.6506 39.487 32.2385 38.3008C27.7984 43.543 25.3694 50.4785 25.5289 57.3464Z" fill="#FDDC04"/>
<path d="M32.2383 38.3011C33.6504 39.4873 34.457 40.1644 34.6575 40.3337C38.5683 35.6429 44.2376 32.3955 50.3138 31.5394C50.3138 31.5394 50.1562 30.4977 49.8418 28.415C43.0091 29.3825 36.6308 33.0316 32.2383 38.3011Z" fill="#FDDC04"/>
<path d="M28.6878 57.2741C29.7405 57.25 30.7939 57.2253 31.8466 57.2012C31.7327 51.8353 33.6142 46.4635 37.0771 42.3665C36.2711 41.6888 35.4644 41.0117 34.6578 40.334C30.7066 45.0039 28.5511 51.1576 28.6878 57.2741Z" fill="#FDDC04"/>
<path d="M34.6582 40.3333C35.4648 41.0111 36.2715 41.6882 37.0775 42.3659C40.5071 38.2533 45.4668 35.4082 50.7858 34.6634C50.6289 33.6217 50.4713 32.5801 50.3144 31.5391C44.2383 32.3952 38.569 35.6426 34.6582 40.3333Z" fill="#FDDC04"/>
<path d="M31.8467 57.2009C32.8994 57.1768 33.9528 57.1527 35.0055 57.128C34.9137 52.5127 36.5218 47.9235 39.4964 44.3988C38.6904 43.721 37.8838 43.0439 37.0771 42.3662C33.6143 46.4632 31.7328 51.835 31.8467 57.2009Z" fill="#FDDC04"/>
<path d="M37.0762 42.3666C37.8828 43.0443 38.6894 43.7214 39.4954 44.3991C42.444 40.8652 46.694 38.4219 51.2565 37.7878C51.0989 36.7468 50.942 35.7051 50.7845 34.6641C45.4655 35.4089 40.5059 38.2539 37.0762 42.3666Z" fill="#FDDC04"/>
<path d="M35.0057 57.1276C35.0057 57.1276 36.0584 57.1035 38.1645 57.0554C38.0955 53.1901 39.4295 49.3828 41.9158 46.431C40.5044 45.2454 39.6977 44.5677 39.4966 44.3984C36.5219 47.9232 34.9139 52.5124 35.0057 57.1276Z" fill="#FDDC04"/>
<path d="M39.4961 44.3984C39.6973 44.5677 40.5039 45.2455 41.9154 46.431C44.3821 43.4753 47.9232 41.4342 51.7285 40.9115C51.414 38.8288 51.2571 37.7871 51.2571 37.7871C46.6946 38.4212 42.4447 40.8646 39.4961 44.3984Z" fill="#FDDC04"/>
<path d="M49.8418 28.415C50.1563 30.4977 50.3138 31.5394 50.3138 31.5394C51.3711 31.3382 52.4512 31.3376 53.5195 31.2399C53.5195 31.2399 53.4941 30.1872 53.4434 28.0811C52.2422 28.182 51.0319 28.1937 49.8418 28.415Z" fill="#FDDC04"/>
<path d="M50.3145 31.5397C50.4714 32.5807 50.6289 33.6224 50.7858 34.6641C51.7109 34.4824 52.6608 34.4935 53.597 34.3991C53.5716 33.3457 53.5456 32.293 53.5202 31.2402C52.4518 31.3379 51.3717 31.3385 50.3145 31.5397Z" fill="#FDDC04"/>
<path d="M50.7852 34.6634C50.9427 35.7044 51.0996 36.7461 51.2572 37.7871C52.0501 37.6263 52.8685 37.6484 53.6725 37.5573C53.6471 36.5039 53.6217 35.4512 53.5963 34.3984C52.6602 34.4928 51.7103 34.4818 50.7852 34.6634Z" fill="#FDDC04"/>
<path d="M51.2578 37.7874C51.2578 37.7874 51.4147 38.8291 51.7292 40.9118C52.39 40.7712 53.0781 40.8044 53.75 40.7158C53.6986 38.6104 53.6732 37.5576 53.6732 37.5576C52.8691 37.6488 52.0508 37.6266 51.2578 37.7874Z" fill="#FDDC04"/>
<path d="M53.4434 28.0807C53.4941 30.1869 53.5195 31.2396 53.5195 31.2396C53.5299 31.2389 53.5397 31.2389 53.5501 31.2389C53.5501 31.2389 53.526 30.1856 53.4772 28.0801C53.4661 28.0801 53.4544 28.0807 53.4434 28.0807Z" fill="#FDDC04"/>
<path d="M53.5195 31.2399C53.5449 32.2926 53.571 33.3454 53.5964 34.3988C53.6048 34.3981 53.6139 34.3981 53.6231 34.3981C53.5983 33.3447 53.5742 32.292 53.5501 31.2393C53.5397 31.2393 53.5299 31.2393 53.5195 31.2399Z" fill="#FDDC04"/>
<path d="M53.5957 34.3991C53.6211 35.4518 53.6465 36.5046 53.6719 37.5579C53.6797 37.5573 53.6875 37.5573 53.6947 37.5573C53.6706 36.5039 53.6465 35.4512 53.6224 34.3984C53.6133 34.3984 53.6042 34.3984 53.5957 34.3991Z" fill="#FDDC04"/>
<path d="M53.6719 37.5573C53.6719 37.5573 53.6973 38.61 53.7487 40.7155H53.7676C53.7194 38.6094 53.6947 37.5566 53.6947 37.5566C53.6875 37.5566 53.6797 37.5566 53.6719 37.5573Z" fill="#FDDC04"/>
<path d="M53.4766 28.0803C53.5254 30.1858 53.5495 31.2391 53.5495 31.2391C59.9596 31.0777 66.4088 33.4696 71.1497 37.7821C71.3418 37.5686 72.0462 36.7854 73.2636 35.4338C67.942 30.5894 60.6745 27.8947 53.4766 28.0803Z" fill="#FDDC04"/>
<path d="M73.2643 35.4336C72.0469 36.7852 71.3424 37.5684 71.1504 37.7819C75.9297 42.0475 78.9896 48.2051 79.4785 54.6003C79.4785 54.6003 80.528 54.5144 82.6276 54.3425C82.0788 47.1556 78.6328 40.222 73.2643 35.4336Z" fill="#FDDC04"/>
<path d="M53.5508 31.2391C53.5749 32.2919 53.599 33.3446 53.6237 34.398C59.2467 34.2606 64.8769 36.3498 69.0371 40.1304C69.7415 39.3472 70.4466 38.5647 71.151 37.7821C66.4101 33.4696 59.9609 31.0777 53.5508 31.2391Z" fill="#FDDC04"/>
<path d="M71.151 37.7822C70.4466 38.5648 69.7415 39.3473 69.0371 40.1305C73.2272 43.8734 75.901 49.2555 76.3301 54.8578C77.3795 54.7718 78.4297 54.6866 79.4791 54.6006C78.9902 48.2054 75.9303 42.0479 71.151 37.7822Z" fill="#FDDC04"/>
<path d="M53.623 34.398C53.6471 35.4507 53.6712 36.5034 53.6953 37.5568C58.5319 37.4436 63.3437 39.23 66.9225 42.4787C67.6269 41.6955 68.332 40.913 69.0364 40.1304C64.8763 36.3498 59.2461 34.2606 53.623 34.398Z" fill="#FDDC04"/>
<path d="M69.0358 40.1309C68.3314 40.9134 67.6263 41.696 66.9219 42.4792C70.5234 45.6992 72.8105 50.306 73.1797 55.1159C74.2291 55.03 75.2786 54.944 76.3288 54.8581C75.8997 49.2559 73.2259 43.8737 69.0358 40.1309Z" fill="#FDDC04"/>
<path d="M53.6953 37.5568C53.6953 37.5568 53.72 38.6096 53.7682 40.7157C57.8177 40.6265 61.8105 42.1102 64.8086 44.827C66.026 43.4748 66.7304 42.6923 66.9225 42.4787C63.3437 39.23 58.5319 37.4436 53.6953 37.5568Z" fill="#FDDC04"/>
<path d="M66.9225 42.4785C66.7305 42.6921 66.026 43.4746 64.8086 44.8268C67.821 47.5241 69.722 51.3548 70.0312 55.3724C72.1302 55.2005 73.1803 55.1153 73.1803 55.1153C72.8112 50.3054 70.5241 45.6986 66.9225 42.4785Z" fill="#FDDC04"/>
<path d="M82.6276 54.3428C80.528 54.5146 79.4785 54.6006 79.4785 54.6006C79.4785 54.6006 79.5137 55.096 79.5846 56.0863C79.5846 56.0863 80.638 56.0615 82.7435 56.0114C82.6667 54.8994 82.6276 54.3428 82.6276 54.3428Z" fill="#FDDC04"/>
<path d="M79.4792 54.6006C78.4297 54.6865 77.3796 54.7718 76.3301 54.8577C76.3301 54.8577 76.362 55.292 76.4264 56.1611C77.4798 56.1364 78.5326 56.111 79.5853 56.0863C79.5143 55.096 79.4792 54.6006 79.4792 54.6006Z" fill="#FDDC04"/>
<path d="M76.3288 54.8574C75.2786 54.9434 74.2292 55.0293 73.1797 55.1152C73.1797 55.1152 73.2083 55.4883 73.2663 56.235C74.3197 56.2103 75.3724 56.1856 76.4251 56.1608C76.3607 55.2917 76.3288 54.8574 76.3288 54.8574Z" fill="#FDDC04"/>
<path d="M73.1803 55.1152C73.1803 55.1152 72.1302 55.2005 70.0312 55.3724C70.0312 55.3724 70.0566 55.6849 70.1087 56.3099C72.2142 56.2604 73.2669 56.235 73.2669 56.235C73.209 55.4883 73.1803 55.1152 73.1803 55.1152Z" fill="#FDDC04"/>
</g>
</g>
<mask id="mask18_11_1550" style="mask-type:luminance" maskUnits="userSpaceOnUse" x="70" y="55" width="13" height="8">
<path d="M70.082 55.9973L70.1074 56.3093L70.162 56.972C70.4474 60.4053 73.4394 62.9813 76.886 62.7413C76.9327 62.7387 76.978 62.7347 77.0247 62.7307C80.258 62.3653 82.67 59.328 82.59 56.0107C82.586 55.8267 82.5794 55.644 82.5727 55.4613L70.082 55.9973Z" fill="white"/>
</mask>
<g mask="url(#mask18_11_1550)">
<path d="M82.6257 54.3428C80.526 54.5146 79.4766 54.6006 79.4766 54.6006C79.5117 55.096 79.5475 55.5908 79.5827 56.0863C79.5827 56.0863 80.6361 56.0615 82.7415 56.0114C82.7031 55.4554 82.6647 54.8994 82.6257 54.3428Z" fill="#FDDC04"/>
<path d="M79.4772 54.6006C78.4277 54.6865 77.3776 54.7718 76.3281 54.8577C76.36 55.292 76.3926 55.7269 76.4245 56.1611C77.4779 56.1364 78.5306 56.111 79.5833 56.0863C79.5482 55.5908 79.5124 55.096 79.4772 54.6006Z" fill="#FDDC04"/>
<path d="M76.3268 54.8574C75.2767 54.9434 74.2272 55.0293 73.1777 55.1152C73.2064 55.4883 73.2357 55.862 73.2643 56.235C74.3177 56.2103 75.3704 56.1855 76.4232 56.1608C76.3913 55.7266 76.3587 55.2917 76.3268 54.8574Z" fill="#FDDC04"/>
<path d="M73.1784 55.1152C73.1784 55.1152 72.1283 55.2005 70.0293 55.3724C70.0547 55.6849 70.0807 55.9974 70.1068 56.3099C72.2122 56.2604 73.265 56.235 73.265 56.235C73.2363 55.862 73.207 55.4883 73.1784 55.1152Z" fill="#FDDC04"/>
<path d="M82.7409 56.0117C80.6354 56.0619 79.582 56.0866 79.582 56.0866C79.7812 64.5104 81.4193 81.3281 81.4193 81.3281C81.4193 81.3281 82.4447 81.3034 84.4948 81.2552C84.4948 81.2552 82.9401 64.4355 82.7409 56.0117Z" fill="#FDDC04"/>
<path d="M79.5827 56.0859C78.5299 56.1107 77.4772 56.1361 76.4238 56.1608C76.623 64.584 78.3438 81.3997 78.3438 81.3997C79.3691 81.3756 80.3945 81.3516 81.4199 81.3275C81.4199 81.3275 79.7819 64.5098 79.5827 56.0859Z" fill="#FDDC04"/>
<path d="M76.4245 56.1611C75.3717 56.1859 74.319 56.2106 73.2656 56.2354C73.4648 64.6592 75.2682 81.473 75.2682 81.473C76.2936 81.4489 77.319 81.4248 78.3444 81.4001C78.3444 81.4001 76.6237 64.5843 76.4245 56.1611Z" fill="#FDDC04"/>
<path d="M73.2656 56.2354C73.2656 56.2354 72.2129 56.2607 70.1074 56.3102C70.306 64.734 72.1921 81.5459 72.1921 81.5459C74.2428 81.4971 75.2682 81.473 75.2682 81.473C75.2682 81.473 73.4648 64.6592 73.2656 56.2354Z" fill="#FDDC04"/>
</g>
</g>
<defs>
<clipPath id="clip0_11_1550">
<rect width="340.157" height="113.386" fill="white"/>
</clipPath>
</defs>
</svg>
